%TF.GenerationSoftware,KiCad,Pcbnew,7.0.10*%
%TF.CreationDate,2025-11-30T12:43:47-05:00*%
%TF.ProjectId,Relay_Helo,52656c61-795f-4486-956c-6f2e6b696361,rev?*%
%TF.SameCoordinates,Original*%
%TF.FileFunction,Drillmap*%
%TF.FilePolarity,Positive*%
%FSLAX45Y45*%
G04 Gerber Fmt 4.5, Leading zero omitted, Abs format (unit mm)*
G04 Created by KiCad (PCBNEW 7.0.10) date 2025-11-30 12:43:47*
%MOMM*%
%LPD*%
G01*
G04 APERTURE LIST*
%ADD10C,0.100000*%
%ADD11C,0.200000*%
%ADD12C,0.130000*%
%ADD13C,0.152000*%
%ADD14C,0.320000*%
G04 APERTURE END LIST*
D10*
X17397000Y-9107000D02*
X11672000Y-9107000D01*
X17697000Y-6301000D02*
G75*
G03*
X17397000Y-6001000I-300000J0D01*
G01*
X17697000Y-6301000D02*
X17697000Y-8807000D01*
X11372000Y-8807000D02*
X11372000Y-6301000D01*
X11672000Y-6001000D02*
G75*
G03*
X11372000Y-6301000I0J-300000D01*
G01*
X17397000Y-9107000D02*
G75*
G03*
X17697000Y-8807000I0J300000D01*
G01*
X11372000Y-8807000D02*
G75*
G03*
X11672000Y-9107000I300000J0D01*
G01*
X11672000Y-6001000D02*
X17397000Y-6001000D01*
D11*
D10*
X13556000Y-7545000D02*
X13586000Y-7575000D01*
X13586000Y-7545000D02*
X13556000Y-7575000D01*
X14476000Y-6956000D02*
G75*
G03*
X14376000Y-6956000I-50000J0D01*
G01*
X14376000Y-6956000D02*
G75*
G03*
X14476000Y-6956000I50000J0D01*
G01*
X14476000Y-8156000D02*
G75*
G03*
X14376000Y-8156000I-50000J0D01*
G01*
X14376000Y-8156000D02*
G75*
G03*
X14476000Y-8156000I50000J0D01*
G01*
D12*
X14231000Y-7486000D02*
X14231000Y-7616000D01*
X14166000Y-7551000D02*
X14296000Y-7551000D01*
X15646000Y-8091000D02*
X15646000Y-8221000D01*
X15581000Y-8156000D02*
X15711000Y-8156000D01*
X15651000Y-6886000D02*
X15651000Y-7016000D01*
X15586000Y-6951000D02*
X15716000Y-6951000D01*
D13*
X12437741Y-7086741D02*
X12437741Y-6979259D01*
X12330259Y-6979259D01*
X12330259Y-7086741D01*
X12437741Y-7086741D01*
X12437741Y-7594741D02*
X12437741Y-7487259D01*
X12330259Y-7487259D01*
X12330259Y-7594741D01*
X12437741Y-7594741D01*
X12437741Y-8102741D02*
X12437741Y-7995259D01*
X12330259Y-7995259D01*
X12330259Y-8102741D01*
X12437741Y-8102741D01*
X16662741Y-7102741D02*
X16662741Y-6995259D01*
X16555259Y-6995259D01*
X16555259Y-7102741D01*
X16662741Y-7102741D01*
X16662741Y-7610741D02*
X16662741Y-7503259D01*
X16555259Y-7503259D01*
X16555259Y-7610741D01*
X16662741Y-7610741D01*
X16662741Y-8118741D02*
X16662741Y-8011259D01*
X16555259Y-8011259D01*
X16555259Y-8118741D01*
X16662741Y-8118741D01*
D14*
X11800000Y-6570000D02*
X11960000Y-6410000D01*
X11800000Y-6250000D01*
X11640000Y-6410000D01*
X11800000Y-6570000D01*
X11800000Y-8860000D02*
X11960000Y-8700000D01*
X11800000Y-8540000D01*
X11640000Y-8700000D01*
X11800000Y-8860000D01*
X17238000Y-6570000D02*
X17398000Y-6410000D01*
X17238000Y-6250000D01*
X17078000Y-6410000D01*
X17238000Y-6570000D01*
X17238000Y-8846000D02*
X17398000Y-8686000D01*
X17238000Y-8526000D01*
X17078000Y-8686000D01*
X17238000Y-8846000D01*
D11*
X11627777Y-9423484D02*
X11627777Y-9223484D01*
X11627777Y-9223484D02*
X11675396Y-9223484D01*
X11675396Y-9223484D02*
X11703967Y-9233008D01*
X11703967Y-9233008D02*
X11723015Y-9252055D01*
X11723015Y-9252055D02*
X11732539Y-9271103D01*
X11732539Y-9271103D02*
X11742062Y-9309198D01*
X11742062Y-9309198D02*
X11742062Y-9337770D01*
X11742062Y-9337770D02*
X11732539Y-9375865D01*
X11732539Y-9375865D02*
X11723015Y-9394912D01*
X11723015Y-9394912D02*
X11703967Y-9413960D01*
X11703967Y-9413960D02*
X11675396Y-9423484D01*
X11675396Y-9423484D02*
X11627777Y-9423484D01*
X11827777Y-9423484D02*
X11827777Y-9290150D01*
X11827777Y-9328246D02*
X11837301Y-9309198D01*
X11837301Y-9309198D02*
X11846824Y-9299674D01*
X11846824Y-9299674D02*
X11865872Y-9290150D01*
X11865872Y-9290150D02*
X11884920Y-9290150D01*
X11951586Y-9423484D02*
X11951586Y-9290150D01*
X11951586Y-9223484D02*
X11942062Y-9233008D01*
X11942062Y-9233008D02*
X11951586Y-9242531D01*
X11951586Y-9242531D02*
X11961110Y-9233008D01*
X11961110Y-9233008D02*
X11951586Y-9223484D01*
X11951586Y-9223484D02*
X11951586Y-9242531D01*
X12075396Y-9423484D02*
X12056348Y-9413960D01*
X12056348Y-9413960D02*
X12046824Y-9394912D01*
X12046824Y-9394912D02*
X12046824Y-9223484D01*
X12180158Y-9423484D02*
X12161110Y-9413960D01*
X12161110Y-9413960D02*
X12151586Y-9394912D01*
X12151586Y-9394912D02*
X12151586Y-9223484D01*
X12408729Y-9423484D02*
X12408729Y-9223484D01*
X12408729Y-9223484D02*
X12475396Y-9366341D01*
X12475396Y-9366341D02*
X12542062Y-9223484D01*
X12542062Y-9223484D02*
X12542062Y-9423484D01*
X12723015Y-9423484D02*
X12723015Y-9318722D01*
X12723015Y-9318722D02*
X12713491Y-9299674D01*
X12713491Y-9299674D02*
X12694443Y-9290150D01*
X12694443Y-9290150D02*
X12656348Y-9290150D01*
X12656348Y-9290150D02*
X12637301Y-9299674D01*
X12723015Y-9413960D02*
X12703967Y-9423484D01*
X12703967Y-9423484D02*
X12656348Y-9423484D01*
X12656348Y-9423484D02*
X12637301Y-9413960D01*
X12637301Y-9413960D02*
X12627777Y-9394912D01*
X12627777Y-9394912D02*
X12627777Y-9375865D01*
X12627777Y-9375865D02*
X12637301Y-9356817D01*
X12637301Y-9356817D02*
X12656348Y-9347293D01*
X12656348Y-9347293D02*
X12703967Y-9347293D01*
X12703967Y-9347293D02*
X12723015Y-9337770D01*
X12818253Y-9290150D02*
X12818253Y-9490150D01*
X12818253Y-9299674D02*
X12837301Y-9290150D01*
X12837301Y-9290150D02*
X12875396Y-9290150D01*
X12875396Y-9290150D02*
X12894443Y-9299674D01*
X12894443Y-9299674D02*
X12903967Y-9309198D01*
X12903967Y-9309198D02*
X12913491Y-9328246D01*
X12913491Y-9328246D02*
X12913491Y-9385389D01*
X12913491Y-9385389D02*
X12903967Y-9404436D01*
X12903967Y-9404436D02*
X12894443Y-9413960D01*
X12894443Y-9413960D02*
X12875396Y-9423484D01*
X12875396Y-9423484D02*
X12837301Y-9423484D01*
X12837301Y-9423484D02*
X12818253Y-9413960D01*
X12999205Y-9404436D02*
X13008729Y-9413960D01*
X13008729Y-9413960D02*
X12999205Y-9423484D01*
X12999205Y-9423484D02*
X12989682Y-9413960D01*
X12989682Y-9413960D02*
X12999205Y-9404436D01*
X12999205Y-9404436D02*
X12999205Y-9423484D01*
X12999205Y-9299674D02*
X13008729Y-9309198D01*
X13008729Y-9309198D02*
X12999205Y-9318722D01*
X12999205Y-9318722D02*
X12989682Y-9309198D01*
X12989682Y-9309198D02*
X12999205Y-9299674D01*
X12999205Y-9299674D02*
X12999205Y-9318722D01*
D10*
X11337000Y-9737000D02*
X11367000Y-9767000D01*
X11367000Y-9737000D02*
X11337000Y-9767000D01*
D11*
X11665872Y-9643484D02*
X11684920Y-9643484D01*
X11684920Y-9643484D02*
X11703967Y-9653008D01*
X11703967Y-9653008D02*
X11713491Y-9662531D01*
X11713491Y-9662531D02*
X11723015Y-9681579D01*
X11723015Y-9681579D02*
X11732539Y-9719674D01*
X11732539Y-9719674D02*
X11732539Y-9767293D01*
X11732539Y-9767293D02*
X11723015Y-9805389D01*
X11723015Y-9805389D02*
X11713491Y-9824436D01*
X11713491Y-9824436D02*
X11703967Y-9833960D01*
X11703967Y-9833960D02*
X11684920Y-9843484D01*
X11684920Y-9843484D02*
X11665872Y-9843484D01*
X11665872Y-9843484D02*
X11646824Y-9833960D01*
X11646824Y-9833960D02*
X11637301Y-9824436D01*
X11637301Y-9824436D02*
X11627777Y-9805389D01*
X11627777Y-9805389D02*
X11618253Y-9767293D01*
X11618253Y-9767293D02*
X11618253Y-9719674D01*
X11618253Y-9719674D02*
X11627777Y-9681579D01*
X11627777Y-9681579D02*
X11637301Y-9662531D01*
X11637301Y-9662531D02*
X11646824Y-9653008D01*
X11646824Y-9653008D02*
X11665872Y-9643484D01*
X11818253Y-9824436D02*
X11827777Y-9833960D01*
X11827777Y-9833960D02*
X11818253Y-9843484D01*
X11818253Y-9843484D02*
X11808729Y-9833960D01*
X11808729Y-9833960D02*
X11818253Y-9824436D01*
X11818253Y-9824436D02*
X11818253Y-9843484D01*
X11894443Y-9643484D02*
X12018253Y-9643484D01*
X12018253Y-9643484D02*
X11951586Y-9719674D01*
X11951586Y-9719674D02*
X11980158Y-9719674D01*
X11980158Y-9719674D02*
X11999205Y-9729198D01*
X11999205Y-9729198D02*
X12008729Y-9738722D01*
X12008729Y-9738722D02*
X12018253Y-9757770D01*
X12018253Y-9757770D02*
X12018253Y-9805389D01*
X12018253Y-9805389D02*
X12008729Y-9824436D01*
X12008729Y-9824436D02*
X11999205Y-9833960D01*
X11999205Y-9833960D02*
X11980158Y-9843484D01*
X11980158Y-9843484D02*
X11923015Y-9843484D01*
X11923015Y-9843484D02*
X11903967Y-9833960D01*
X11903967Y-9833960D02*
X11894443Y-9824436D01*
X12142062Y-9643484D02*
X12161110Y-9643484D01*
X12161110Y-9643484D02*
X12180158Y-9653008D01*
X12180158Y-9653008D02*
X12189682Y-9662531D01*
X12189682Y-9662531D02*
X12199205Y-9681579D01*
X12199205Y-9681579D02*
X12208729Y-9719674D01*
X12208729Y-9719674D02*
X12208729Y-9767293D01*
X12208729Y-9767293D02*
X12199205Y-9805389D01*
X12199205Y-9805389D02*
X12189682Y-9824436D01*
X12189682Y-9824436D02*
X12180158Y-9833960D01*
X12180158Y-9833960D02*
X12161110Y-9843484D01*
X12161110Y-9843484D02*
X12142062Y-9843484D01*
X12142062Y-9843484D02*
X12123015Y-9833960D01*
X12123015Y-9833960D02*
X12113491Y-9824436D01*
X12113491Y-9824436D02*
X12103967Y-9805389D01*
X12103967Y-9805389D02*
X12094443Y-9767293D01*
X12094443Y-9767293D02*
X12094443Y-9719674D01*
X12094443Y-9719674D02*
X12103967Y-9681579D01*
X12103967Y-9681579D02*
X12113491Y-9662531D01*
X12113491Y-9662531D02*
X12123015Y-9653008D01*
X12123015Y-9653008D02*
X12142062Y-9643484D01*
X12332539Y-9643484D02*
X12351586Y-9643484D01*
X12351586Y-9643484D02*
X12370634Y-9653008D01*
X12370634Y-9653008D02*
X12380158Y-9662531D01*
X12380158Y-9662531D02*
X12389682Y-9681579D01*
X12389682Y-9681579D02*
X12399205Y-9719674D01*
X12399205Y-9719674D02*
X12399205Y-9767293D01*
X12399205Y-9767293D02*
X12389682Y-9805389D01*
X12389682Y-9805389D02*
X12380158Y-9824436D01*
X12380158Y-9824436D02*
X12370634Y-9833960D01*
X12370634Y-9833960D02*
X12351586Y-9843484D01*
X12351586Y-9843484D02*
X12332539Y-9843484D01*
X12332539Y-9843484D02*
X12313491Y-9833960D01*
X12313491Y-9833960D02*
X12303967Y-9824436D01*
X12303967Y-9824436D02*
X12294443Y-9805389D01*
X12294443Y-9805389D02*
X12284920Y-9767293D01*
X12284920Y-9767293D02*
X12284920Y-9719674D01*
X12284920Y-9719674D02*
X12294443Y-9681579D01*
X12294443Y-9681579D02*
X12303967Y-9662531D01*
X12303967Y-9662531D02*
X12313491Y-9653008D01*
X12313491Y-9653008D02*
X12332539Y-9643484D01*
X12484920Y-9843484D02*
X12484920Y-9710150D01*
X12484920Y-9729198D02*
X12494443Y-9719674D01*
X12494443Y-9719674D02*
X12513491Y-9710150D01*
X12513491Y-9710150D02*
X12542063Y-9710150D01*
X12542063Y-9710150D02*
X12561110Y-9719674D01*
X12561110Y-9719674D02*
X12570634Y-9738722D01*
X12570634Y-9738722D02*
X12570634Y-9843484D01*
X12570634Y-9738722D02*
X12580158Y-9719674D01*
X12580158Y-9719674D02*
X12599205Y-9710150D01*
X12599205Y-9710150D02*
X12627777Y-9710150D01*
X12627777Y-9710150D02*
X12646824Y-9719674D01*
X12646824Y-9719674D02*
X12656348Y-9738722D01*
X12656348Y-9738722D02*
X12656348Y-9843484D01*
X12751586Y-9843484D02*
X12751586Y-9710150D01*
X12751586Y-9729198D02*
X12761110Y-9719674D01*
X12761110Y-9719674D02*
X12780158Y-9710150D01*
X12780158Y-9710150D02*
X12808729Y-9710150D01*
X12808729Y-9710150D02*
X12827777Y-9719674D01*
X12827777Y-9719674D02*
X12837301Y-9738722D01*
X12837301Y-9738722D02*
X12837301Y-9843484D01*
X12837301Y-9738722D02*
X12846824Y-9719674D01*
X12846824Y-9719674D02*
X12865872Y-9710150D01*
X12865872Y-9710150D02*
X12894443Y-9710150D01*
X12894443Y-9710150D02*
X12913491Y-9719674D01*
X12913491Y-9719674D02*
X12923015Y-9738722D01*
X12923015Y-9738722D02*
X12923015Y-9843484D01*
X13313491Y-9633960D02*
X13142063Y-9891103D01*
X13570634Y-9643484D02*
X13589682Y-9643484D01*
X13589682Y-9643484D02*
X13608729Y-9653008D01*
X13608729Y-9653008D02*
X13618253Y-9662531D01*
X13618253Y-9662531D02*
X13627777Y-9681579D01*
X13627777Y-9681579D02*
X13637301Y-9719674D01*
X13637301Y-9719674D02*
X13637301Y-9767293D01*
X13637301Y-9767293D02*
X13627777Y-9805389D01*
X13627777Y-9805389D02*
X13618253Y-9824436D01*
X13618253Y-9824436D02*
X13608729Y-9833960D01*
X13608729Y-9833960D02*
X13589682Y-9843484D01*
X13589682Y-9843484D02*
X13570634Y-9843484D01*
X13570634Y-9843484D02*
X13551586Y-9833960D01*
X13551586Y-9833960D02*
X13542063Y-9824436D01*
X13542063Y-9824436D02*
X13532539Y-9805389D01*
X13532539Y-9805389D02*
X13523015Y-9767293D01*
X13523015Y-9767293D02*
X13523015Y-9719674D01*
X13523015Y-9719674D02*
X13532539Y-9681579D01*
X13532539Y-9681579D02*
X13542063Y-9662531D01*
X13542063Y-9662531D02*
X13551586Y-9653008D01*
X13551586Y-9653008D02*
X13570634Y-9643484D01*
X13723015Y-9824436D02*
X13732539Y-9833960D01*
X13732539Y-9833960D02*
X13723015Y-9843484D01*
X13723015Y-9843484D02*
X13713491Y-9833960D01*
X13713491Y-9833960D02*
X13723015Y-9824436D01*
X13723015Y-9824436D02*
X13723015Y-9843484D01*
X13856348Y-9643484D02*
X13875396Y-9643484D01*
X13875396Y-9643484D02*
X13894444Y-9653008D01*
X13894444Y-9653008D02*
X13903967Y-9662531D01*
X13903967Y-9662531D02*
X13913491Y-9681579D01*
X13913491Y-9681579D02*
X13923015Y-9719674D01*
X13923015Y-9719674D02*
X13923015Y-9767293D01*
X13923015Y-9767293D02*
X13913491Y-9805389D01*
X13913491Y-9805389D02*
X13903967Y-9824436D01*
X13903967Y-9824436D02*
X13894444Y-9833960D01*
X13894444Y-9833960D02*
X13875396Y-9843484D01*
X13875396Y-9843484D02*
X13856348Y-9843484D01*
X13856348Y-9843484D02*
X13837301Y-9833960D01*
X13837301Y-9833960D02*
X13827777Y-9824436D01*
X13827777Y-9824436D02*
X13818253Y-9805389D01*
X13818253Y-9805389D02*
X13808729Y-9767293D01*
X13808729Y-9767293D02*
X13808729Y-9719674D01*
X13808729Y-9719674D02*
X13818253Y-9681579D01*
X13818253Y-9681579D02*
X13827777Y-9662531D01*
X13827777Y-9662531D02*
X13837301Y-9653008D01*
X13837301Y-9653008D02*
X13856348Y-9643484D01*
X14113491Y-9843484D02*
X13999206Y-9843484D01*
X14056348Y-9843484D02*
X14056348Y-9643484D01*
X14056348Y-9643484D02*
X14037301Y-9672055D01*
X14037301Y-9672055D02*
X14018253Y-9691103D01*
X14018253Y-9691103D02*
X13999206Y-9700627D01*
X14303967Y-9843484D02*
X14189682Y-9843484D01*
X14246825Y-9843484D02*
X14246825Y-9643484D01*
X14246825Y-9643484D02*
X14227777Y-9672055D01*
X14227777Y-9672055D02*
X14208729Y-9691103D01*
X14208729Y-9691103D02*
X14189682Y-9700627D01*
X14418253Y-9729198D02*
X14399206Y-9719674D01*
X14399206Y-9719674D02*
X14389682Y-9710150D01*
X14389682Y-9710150D02*
X14380158Y-9691103D01*
X14380158Y-9691103D02*
X14380158Y-9681579D01*
X14380158Y-9681579D02*
X14389682Y-9662531D01*
X14389682Y-9662531D02*
X14399206Y-9653008D01*
X14399206Y-9653008D02*
X14418253Y-9643484D01*
X14418253Y-9643484D02*
X14456348Y-9643484D01*
X14456348Y-9643484D02*
X14475396Y-9653008D01*
X14475396Y-9653008D02*
X14484920Y-9662531D01*
X14484920Y-9662531D02*
X14494444Y-9681579D01*
X14494444Y-9681579D02*
X14494444Y-9691103D01*
X14494444Y-9691103D02*
X14484920Y-9710150D01*
X14484920Y-9710150D02*
X14475396Y-9719674D01*
X14475396Y-9719674D02*
X14456348Y-9729198D01*
X14456348Y-9729198D02*
X14418253Y-9729198D01*
X14418253Y-9729198D02*
X14399206Y-9738722D01*
X14399206Y-9738722D02*
X14389682Y-9748246D01*
X14389682Y-9748246D02*
X14380158Y-9767293D01*
X14380158Y-9767293D02*
X14380158Y-9805389D01*
X14380158Y-9805389D02*
X14389682Y-9824436D01*
X14389682Y-9824436D02*
X14399206Y-9833960D01*
X14399206Y-9833960D02*
X14418253Y-9843484D01*
X14418253Y-9843484D02*
X14456348Y-9843484D01*
X14456348Y-9843484D02*
X14475396Y-9833960D01*
X14475396Y-9833960D02*
X14484920Y-9824436D01*
X14484920Y-9824436D02*
X14494444Y-9805389D01*
X14494444Y-9805389D02*
X14494444Y-9767293D01*
X14494444Y-9767293D02*
X14484920Y-9748246D01*
X14484920Y-9748246D02*
X14475396Y-9738722D01*
X14475396Y-9738722D02*
X14456348Y-9729198D01*
X14570634Y-9643484D02*
X14570634Y-9681579D01*
X14646825Y-9643484D02*
X14646825Y-9681579D01*
X14942063Y-9919674D02*
X14932539Y-9910150D01*
X14932539Y-9910150D02*
X14913491Y-9881579D01*
X14913491Y-9881579D02*
X14903968Y-9862531D01*
X14903968Y-9862531D02*
X14894444Y-9833960D01*
X14894444Y-9833960D02*
X14884920Y-9786341D01*
X14884920Y-9786341D02*
X14884920Y-9748246D01*
X14884920Y-9748246D02*
X14894444Y-9700627D01*
X14894444Y-9700627D02*
X14903968Y-9672055D01*
X14903968Y-9672055D02*
X14913491Y-9653008D01*
X14913491Y-9653008D02*
X14932539Y-9624436D01*
X14932539Y-9624436D02*
X14942063Y-9614912D01*
X15123015Y-9843484D02*
X15008729Y-9843484D01*
X15065872Y-9843484D02*
X15065872Y-9643484D01*
X15065872Y-9643484D02*
X15046825Y-9672055D01*
X15046825Y-9672055D02*
X15027777Y-9691103D01*
X15027777Y-9691103D02*
X15008729Y-9700627D01*
X15361110Y-9843484D02*
X15361110Y-9643484D01*
X15446825Y-9843484D02*
X15446825Y-9738722D01*
X15446825Y-9738722D02*
X15437301Y-9719674D01*
X15437301Y-9719674D02*
X15418253Y-9710150D01*
X15418253Y-9710150D02*
X15389682Y-9710150D01*
X15389682Y-9710150D02*
X15370634Y-9719674D01*
X15370634Y-9719674D02*
X15361110Y-9729198D01*
X15570634Y-9843484D02*
X15551587Y-9833960D01*
X15551587Y-9833960D02*
X15542063Y-9824436D01*
X15542063Y-9824436D02*
X15532539Y-9805389D01*
X15532539Y-9805389D02*
X15532539Y-9748246D01*
X15532539Y-9748246D02*
X15542063Y-9729198D01*
X15542063Y-9729198D02*
X15551587Y-9719674D01*
X15551587Y-9719674D02*
X15570634Y-9710150D01*
X15570634Y-9710150D02*
X15599206Y-9710150D01*
X15599206Y-9710150D02*
X15618253Y-9719674D01*
X15618253Y-9719674D02*
X15627777Y-9729198D01*
X15627777Y-9729198D02*
X15637301Y-9748246D01*
X15637301Y-9748246D02*
X15637301Y-9805389D01*
X15637301Y-9805389D02*
X15627777Y-9824436D01*
X15627777Y-9824436D02*
X15618253Y-9833960D01*
X15618253Y-9833960D02*
X15599206Y-9843484D01*
X15599206Y-9843484D02*
X15570634Y-9843484D01*
X15751587Y-9843484D02*
X15732539Y-9833960D01*
X15732539Y-9833960D02*
X15723015Y-9814912D01*
X15723015Y-9814912D02*
X15723015Y-9643484D01*
X15903968Y-9833960D02*
X15884920Y-9843484D01*
X15884920Y-9843484D02*
X15846825Y-9843484D01*
X15846825Y-9843484D02*
X15827777Y-9833960D01*
X15827777Y-9833960D02*
X15818253Y-9814912D01*
X15818253Y-9814912D02*
X15818253Y-9738722D01*
X15818253Y-9738722D02*
X15827777Y-9719674D01*
X15827777Y-9719674D02*
X15846825Y-9710150D01*
X15846825Y-9710150D02*
X15884920Y-9710150D01*
X15884920Y-9710150D02*
X15903968Y-9719674D01*
X15903968Y-9719674D02*
X15913491Y-9738722D01*
X15913491Y-9738722D02*
X15913491Y-9757770D01*
X15913491Y-9757770D02*
X15818253Y-9776817D01*
X15980158Y-9919674D02*
X15989682Y-9910150D01*
X15989682Y-9910150D02*
X16008730Y-9881579D01*
X16008730Y-9881579D02*
X16018253Y-9862531D01*
X16018253Y-9862531D02*
X16027777Y-9833960D01*
X16027777Y-9833960D02*
X16037301Y-9786341D01*
X16037301Y-9786341D02*
X16037301Y-9748246D01*
X16037301Y-9748246D02*
X16027777Y-9700627D01*
X16027777Y-9700627D02*
X16018253Y-9672055D01*
X16018253Y-9672055D02*
X16008730Y-9653008D01*
X16008730Y-9653008D02*
X15989682Y-9624436D01*
X15989682Y-9624436D02*
X15980158Y-9614912D01*
D10*
X11367000Y-10016000D02*
G75*
G03*
X11267000Y-10016000I-50000J0D01*
G01*
X11267000Y-10016000D02*
G75*
G03*
X11367000Y-10016000I50000J0D01*
G01*
D11*
X11732539Y-10107484D02*
X11618253Y-10107484D01*
X11675396Y-10107484D02*
X11675396Y-9907484D01*
X11675396Y-9907484D02*
X11656348Y-9936055D01*
X11656348Y-9936055D02*
X11637301Y-9955103D01*
X11637301Y-9955103D02*
X11618253Y-9964627D01*
X11818253Y-10088436D02*
X11827777Y-10097960D01*
X11827777Y-10097960D02*
X11818253Y-10107484D01*
X11818253Y-10107484D02*
X11808729Y-10097960D01*
X11808729Y-10097960D02*
X11818253Y-10088436D01*
X11818253Y-10088436D02*
X11818253Y-10107484D01*
X11951586Y-9907484D02*
X11970634Y-9907484D01*
X11970634Y-9907484D02*
X11989682Y-9917008D01*
X11989682Y-9917008D02*
X11999205Y-9926531D01*
X11999205Y-9926531D02*
X12008729Y-9945579D01*
X12008729Y-9945579D02*
X12018253Y-9983674D01*
X12018253Y-9983674D02*
X12018253Y-10031293D01*
X12018253Y-10031293D02*
X12008729Y-10069389D01*
X12008729Y-10069389D02*
X11999205Y-10088436D01*
X11999205Y-10088436D02*
X11989682Y-10097960D01*
X11989682Y-10097960D02*
X11970634Y-10107484D01*
X11970634Y-10107484D02*
X11951586Y-10107484D01*
X11951586Y-10107484D02*
X11932539Y-10097960D01*
X11932539Y-10097960D02*
X11923015Y-10088436D01*
X11923015Y-10088436D02*
X11913491Y-10069389D01*
X11913491Y-10069389D02*
X11903967Y-10031293D01*
X11903967Y-10031293D02*
X11903967Y-9983674D01*
X11903967Y-9983674D02*
X11913491Y-9945579D01*
X11913491Y-9945579D02*
X11923015Y-9926531D01*
X11923015Y-9926531D02*
X11932539Y-9917008D01*
X11932539Y-9917008D02*
X11951586Y-9907484D01*
X12142062Y-9907484D02*
X12161110Y-9907484D01*
X12161110Y-9907484D02*
X12180158Y-9917008D01*
X12180158Y-9917008D02*
X12189682Y-9926531D01*
X12189682Y-9926531D02*
X12199205Y-9945579D01*
X12199205Y-9945579D02*
X12208729Y-9983674D01*
X12208729Y-9983674D02*
X12208729Y-10031293D01*
X12208729Y-10031293D02*
X12199205Y-10069389D01*
X12199205Y-10069389D02*
X12189682Y-10088436D01*
X12189682Y-10088436D02*
X12180158Y-10097960D01*
X12180158Y-10097960D02*
X12161110Y-10107484D01*
X12161110Y-10107484D02*
X12142062Y-10107484D01*
X12142062Y-10107484D02*
X12123015Y-10097960D01*
X12123015Y-10097960D02*
X12113491Y-10088436D01*
X12113491Y-10088436D02*
X12103967Y-10069389D01*
X12103967Y-10069389D02*
X12094443Y-10031293D01*
X12094443Y-10031293D02*
X12094443Y-9983674D01*
X12094443Y-9983674D02*
X12103967Y-9945579D01*
X12103967Y-9945579D02*
X12113491Y-9926531D01*
X12113491Y-9926531D02*
X12123015Y-9917008D01*
X12123015Y-9917008D02*
X12142062Y-9907484D01*
X12332539Y-9907484D02*
X12351586Y-9907484D01*
X12351586Y-9907484D02*
X12370634Y-9917008D01*
X12370634Y-9917008D02*
X12380158Y-9926531D01*
X12380158Y-9926531D02*
X12389682Y-9945579D01*
X12389682Y-9945579D02*
X12399205Y-9983674D01*
X12399205Y-9983674D02*
X12399205Y-10031293D01*
X12399205Y-10031293D02*
X12389682Y-10069389D01*
X12389682Y-10069389D02*
X12380158Y-10088436D01*
X12380158Y-10088436D02*
X12370634Y-10097960D01*
X12370634Y-10097960D02*
X12351586Y-10107484D01*
X12351586Y-10107484D02*
X12332539Y-10107484D01*
X12332539Y-10107484D02*
X12313491Y-10097960D01*
X12313491Y-10097960D02*
X12303967Y-10088436D01*
X12303967Y-10088436D02*
X12294443Y-10069389D01*
X12294443Y-10069389D02*
X12284920Y-10031293D01*
X12284920Y-10031293D02*
X12284920Y-9983674D01*
X12284920Y-9983674D02*
X12294443Y-9945579D01*
X12294443Y-9945579D02*
X12303967Y-9926531D01*
X12303967Y-9926531D02*
X12313491Y-9917008D01*
X12313491Y-9917008D02*
X12332539Y-9907484D01*
X12484920Y-10107484D02*
X12484920Y-9974150D01*
X12484920Y-9993198D02*
X12494443Y-9983674D01*
X12494443Y-9983674D02*
X12513491Y-9974150D01*
X12513491Y-9974150D02*
X12542063Y-9974150D01*
X12542063Y-9974150D02*
X12561110Y-9983674D01*
X12561110Y-9983674D02*
X12570634Y-10002722D01*
X12570634Y-10002722D02*
X12570634Y-10107484D01*
X12570634Y-10002722D02*
X12580158Y-9983674D01*
X12580158Y-9983674D02*
X12599205Y-9974150D01*
X12599205Y-9974150D02*
X12627777Y-9974150D01*
X12627777Y-9974150D02*
X12646824Y-9983674D01*
X12646824Y-9983674D02*
X12656348Y-10002722D01*
X12656348Y-10002722D02*
X12656348Y-10107484D01*
X12751586Y-10107484D02*
X12751586Y-9974150D01*
X12751586Y-9993198D02*
X12761110Y-9983674D01*
X12761110Y-9983674D02*
X12780158Y-9974150D01*
X12780158Y-9974150D02*
X12808729Y-9974150D01*
X12808729Y-9974150D02*
X12827777Y-9983674D01*
X12827777Y-9983674D02*
X12837301Y-10002722D01*
X12837301Y-10002722D02*
X12837301Y-10107484D01*
X12837301Y-10002722D02*
X12846824Y-9983674D01*
X12846824Y-9983674D02*
X12865872Y-9974150D01*
X12865872Y-9974150D02*
X12894443Y-9974150D01*
X12894443Y-9974150D02*
X12913491Y-9983674D01*
X12913491Y-9983674D02*
X12923015Y-10002722D01*
X12923015Y-10002722D02*
X12923015Y-10107484D01*
X13313491Y-9897960D02*
X13142063Y-10155103D01*
X13570634Y-9907484D02*
X13589682Y-9907484D01*
X13589682Y-9907484D02*
X13608729Y-9917008D01*
X13608729Y-9917008D02*
X13618253Y-9926531D01*
X13618253Y-9926531D02*
X13627777Y-9945579D01*
X13627777Y-9945579D02*
X13637301Y-9983674D01*
X13637301Y-9983674D02*
X13637301Y-10031293D01*
X13637301Y-10031293D02*
X13627777Y-10069389D01*
X13627777Y-10069389D02*
X13618253Y-10088436D01*
X13618253Y-10088436D02*
X13608729Y-10097960D01*
X13608729Y-10097960D02*
X13589682Y-10107484D01*
X13589682Y-10107484D02*
X13570634Y-10107484D01*
X13570634Y-10107484D02*
X13551586Y-10097960D01*
X13551586Y-10097960D02*
X13542063Y-10088436D01*
X13542063Y-10088436D02*
X13532539Y-10069389D01*
X13532539Y-10069389D02*
X13523015Y-10031293D01*
X13523015Y-10031293D02*
X13523015Y-9983674D01*
X13523015Y-9983674D02*
X13532539Y-9945579D01*
X13532539Y-9945579D02*
X13542063Y-9926531D01*
X13542063Y-9926531D02*
X13551586Y-9917008D01*
X13551586Y-9917008D02*
X13570634Y-9907484D01*
X13723015Y-10088436D02*
X13732539Y-10097960D01*
X13732539Y-10097960D02*
X13723015Y-10107484D01*
X13723015Y-10107484D02*
X13713491Y-10097960D01*
X13713491Y-10097960D02*
X13723015Y-10088436D01*
X13723015Y-10088436D02*
X13723015Y-10107484D01*
X13856348Y-9907484D02*
X13875396Y-9907484D01*
X13875396Y-9907484D02*
X13894444Y-9917008D01*
X13894444Y-9917008D02*
X13903967Y-9926531D01*
X13903967Y-9926531D02*
X13913491Y-9945579D01*
X13913491Y-9945579D02*
X13923015Y-9983674D01*
X13923015Y-9983674D02*
X13923015Y-10031293D01*
X13923015Y-10031293D02*
X13913491Y-10069389D01*
X13913491Y-10069389D02*
X13903967Y-10088436D01*
X13903967Y-10088436D02*
X13894444Y-10097960D01*
X13894444Y-10097960D02*
X13875396Y-10107484D01*
X13875396Y-10107484D02*
X13856348Y-10107484D01*
X13856348Y-10107484D02*
X13837301Y-10097960D01*
X13837301Y-10097960D02*
X13827777Y-10088436D01*
X13827777Y-10088436D02*
X13818253Y-10069389D01*
X13818253Y-10069389D02*
X13808729Y-10031293D01*
X13808729Y-10031293D02*
X13808729Y-9983674D01*
X13808729Y-9983674D02*
X13818253Y-9945579D01*
X13818253Y-9945579D02*
X13827777Y-9926531D01*
X13827777Y-9926531D02*
X13837301Y-9917008D01*
X13837301Y-9917008D02*
X13856348Y-9907484D01*
X13989682Y-9907484D02*
X14113491Y-9907484D01*
X14113491Y-9907484D02*
X14046825Y-9983674D01*
X14046825Y-9983674D02*
X14075396Y-9983674D01*
X14075396Y-9983674D02*
X14094444Y-9993198D01*
X14094444Y-9993198D02*
X14103967Y-10002722D01*
X14103967Y-10002722D02*
X14113491Y-10021770D01*
X14113491Y-10021770D02*
X14113491Y-10069389D01*
X14113491Y-10069389D02*
X14103967Y-10088436D01*
X14103967Y-10088436D02*
X14094444Y-10097960D01*
X14094444Y-10097960D02*
X14075396Y-10107484D01*
X14075396Y-10107484D02*
X14018253Y-10107484D01*
X14018253Y-10107484D02*
X13999206Y-10097960D01*
X13999206Y-10097960D02*
X13989682Y-10088436D01*
X14208729Y-10107484D02*
X14246825Y-10107484D01*
X14246825Y-10107484D02*
X14265872Y-10097960D01*
X14265872Y-10097960D02*
X14275396Y-10088436D01*
X14275396Y-10088436D02*
X14294444Y-10059865D01*
X14294444Y-10059865D02*
X14303967Y-10021770D01*
X14303967Y-10021770D02*
X14303967Y-9945579D01*
X14303967Y-9945579D02*
X14294444Y-9926531D01*
X14294444Y-9926531D02*
X14284920Y-9917008D01*
X14284920Y-9917008D02*
X14265872Y-9907484D01*
X14265872Y-9907484D02*
X14227777Y-9907484D01*
X14227777Y-9907484D02*
X14208729Y-9917008D01*
X14208729Y-9917008D02*
X14199206Y-9926531D01*
X14199206Y-9926531D02*
X14189682Y-9945579D01*
X14189682Y-9945579D02*
X14189682Y-9993198D01*
X14189682Y-9993198D02*
X14199206Y-10012246D01*
X14199206Y-10012246D02*
X14208729Y-10021770D01*
X14208729Y-10021770D02*
X14227777Y-10031293D01*
X14227777Y-10031293D02*
X14265872Y-10031293D01*
X14265872Y-10031293D02*
X14284920Y-10021770D01*
X14284920Y-10021770D02*
X14294444Y-10012246D01*
X14294444Y-10012246D02*
X14303967Y-9993198D01*
X14475396Y-9974150D02*
X14475396Y-10107484D01*
X14427777Y-9897960D02*
X14380158Y-10040817D01*
X14380158Y-10040817D02*
X14503967Y-10040817D01*
X14570634Y-9907484D02*
X14570634Y-9945579D01*
X14646825Y-9907484D02*
X14646825Y-9945579D01*
X14942063Y-10183674D02*
X14932539Y-10174150D01*
X14932539Y-10174150D02*
X14913491Y-10145579D01*
X14913491Y-10145579D02*
X14903968Y-10126531D01*
X14903968Y-10126531D02*
X14894444Y-10097960D01*
X14894444Y-10097960D02*
X14884920Y-10050341D01*
X14884920Y-10050341D02*
X14884920Y-10012246D01*
X14884920Y-10012246D02*
X14894444Y-9964627D01*
X14894444Y-9964627D02*
X14903968Y-9936055D01*
X14903968Y-9936055D02*
X14913491Y-9917008D01*
X14913491Y-9917008D02*
X14932539Y-9888436D01*
X14932539Y-9888436D02*
X14942063Y-9878912D01*
X15008729Y-9926531D02*
X15018253Y-9917008D01*
X15018253Y-9917008D02*
X15037301Y-9907484D01*
X15037301Y-9907484D02*
X15084920Y-9907484D01*
X15084920Y-9907484D02*
X15103968Y-9917008D01*
X15103968Y-9917008D02*
X15113491Y-9926531D01*
X15113491Y-9926531D02*
X15123015Y-9945579D01*
X15123015Y-9945579D02*
X15123015Y-9964627D01*
X15123015Y-9964627D02*
X15113491Y-9993198D01*
X15113491Y-9993198D02*
X14999206Y-10107484D01*
X14999206Y-10107484D02*
X15123015Y-10107484D01*
X15361110Y-10107484D02*
X15361110Y-9907484D01*
X15446825Y-10107484D02*
X15446825Y-10002722D01*
X15446825Y-10002722D02*
X15437301Y-9983674D01*
X15437301Y-9983674D02*
X15418253Y-9974150D01*
X15418253Y-9974150D02*
X15389682Y-9974150D01*
X15389682Y-9974150D02*
X15370634Y-9983674D01*
X15370634Y-9983674D02*
X15361110Y-9993198D01*
X15570634Y-10107484D02*
X15551587Y-10097960D01*
X15551587Y-10097960D02*
X15542063Y-10088436D01*
X15542063Y-10088436D02*
X15532539Y-10069389D01*
X15532539Y-10069389D02*
X15532539Y-10012246D01*
X15532539Y-10012246D02*
X15542063Y-9993198D01*
X15542063Y-9993198D02*
X15551587Y-9983674D01*
X15551587Y-9983674D02*
X15570634Y-9974150D01*
X15570634Y-9974150D02*
X15599206Y-9974150D01*
X15599206Y-9974150D02*
X15618253Y-9983674D01*
X15618253Y-9983674D02*
X15627777Y-9993198D01*
X15627777Y-9993198D02*
X15637301Y-10012246D01*
X15637301Y-10012246D02*
X15637301Y-10069389D01*
X15637301Y-10069389D02*
X15627777Y-10088436D01*
X15627777Y-10088436D02*
X15618253Y-10097960D01*
X15618253Y-10097960D02*
X15599206Y-10107484D01*
X15599206Y-10107484D02*
X15570634Y-10107484D01*
X15751587Y-10107484D02*
X15732539Y-10097960D01*
X15732539Y-10097960D02*
X15723015Y-10078912D01*
X15723015Y-10078912D02*
X15723015Y-9907484D01*
X15903968Y-10097960D02*
X15884920Y-10107484D01*
X15884920Y-10107484D02*
X15846825Y-10107484D01*
X15846825Y-10107484D02*
X15827777Y-10097960D01*
X15827777Y-10097960D02*
X15818253Y-10078912D01*
X15818253Y-10078912D02*
X15818253Y-10002722D01*
X15818253Y-10002722D02*
X15827777Y-9983674D01*
X15827777Y-9983674D02*
X15846825Y-9974150D01*
X15846825Y-9974150D02*
X15884920Y-9974150D01*
X15884920Y-9974150D02*
X15903968Y-9983674D01*
X15903968Y-9983674D02*
X15913491Y-10002722D01*
X15913491Y-10002722D02*
X15913491Y-10021770D01*
X15913491Y-10021770D02*
X15818253Y-10040817D01*
X15989682Y-10097960D02*
X16008730Y-10107484D01*
X16008730Y-10107484D02*
X16046825Y-10107484D01*
X16046825Y-10107484D02*
X16065872Y-10097960D01*
X16065872Y-10097960D02*
X16075396Y-10078912D01*
X16075396Y-10078912D02*
X16075396Y-10069389D01*
X16075396Y-10069389D02*
X16065872Y-10050341D01*
X16065872Y-10050341D02*
X16046825Y-10040817D01*
X16046825Y-10040817D02*
X16018253Y-10040817D01*
X16018253Y-10040817D02*
X15999206Y-10031293D01*
X15999206Y-10031293D02*
X15989682Y-10012246D01*
X15989682Y-10012246D02*
X15989682Y-10002722D01*
X15989682Y-10002722D02*
X15999206Y-9983674D01*
X15999206Y-9983674D02*
X16018253Y-9974150D01*
X16018253Y-9974150D02*
X16046825Y-9974150D01*
X16046825Y-9974150D02*
X16065872Y-9983674D01*
X16142063Y-10183674D02*
X16151587Y-10174150D01*
X16151587Y-10174150D02*
X16170634Y-10145579D01*
X16170634Y-10145579D02*
X16180158Y-10126531D01*
X16180158Y-10126531D02*
X16189682Y-10097960D01*
X16189682Y-10097960D02*
X16199206Y-10050341D01*
X16199206Y-10050341D02*
X16199206Y-10012246D01*
X16199206Y-10012246D02*
X16189682Y-9964627D01*
X16189682Y-9964627D02*
X16180158Y-9936055D01*
X16180158Y-9936055D02*
X16170634Y-9917008D01*
X16170634Y-9917008D02*
X16151587Y-9888436D01*
X16151587Y-9888436D02*
X16142063Y-9878912D01*
D12*
X11302000Y-10215000D02*
X11302000Y-10345000D01*
X11237000Y-10280000D02*
X11367000Y-10280000D01*
D11*
X11732539Y-10371484D02*
X11618253Y-10371484D01*
X11675396Y-10371484D02*
X11675396Y-10171484D01*
X11675396Y-10171484D02*
X11656348Y-10200055D01*
X11656348Y-10200055D02*
X11637301Y-10219103D01*
X11637301Y-10219103D02*
X11618253Y-10228627D01*
X11818253Y-10352436D02*
X11827777Y-10361960D01*
X11827777Y-10361960D02*
X11818253Y-10371484D01*
X11818253Y-10371484D02*
X11808729Y-10361960D01*
X11808729Y-10361960D02*
X11818253Y-10352436D01*
X11818253Y-10352436D02*
X11818253Y-10371484D01*
X11894443Y-10171484D02*
X12018253Y-10171484D01*
X12018253Y-10171484D02*
X11951586Y-10247674D01*
X11951586Y-10247674D02*
X11980158Y-10247674D01*
X11980158Y-10247674D02*
X11999205Y-10257198D01*
X11999205Y-10257198D02*
X12008729Y-10266722D01*
X12008729Y-10266722D02*
X12018253Y-10285770D01*
X12018253Y-10285770D02*
X12018253Y-10333389D01*
X12018253Y-10333389D02*
X12008729Y-10352436D01*
X12008729Y-10352436D02*
X11999205Y-10361960D01*
X11999205Y-10361960D02*
X11980158Y-10371484D01*
X11980158Y-10371484D02*
X11923015Y-10371484D01*
X11923015Y-10371484D02*
X11903967Y-10361960D01*
X11903967Y-10361960D02*
X11894443Y-10352436D01*
X12142062Y-10171484D02*
X12161110Y-10171484D01*
X12161110Y-10171484D02*
X12180158Y-10181008D01*
X12180158Y-10181008D02*
X12189682Y-10190531D01*
X12189682Y-10190531D02*
X12199205Y-10209579D01*
X12199205Y-10209579D02*
X12208729Y-10247674D01*
X12208729Y-10247674D02*
X12208729Y-10295293D01*
X12208729Y-10295293D02*
X12199205Y-10333389D01*
X12199205Y-10333389D02*
X12189682Y-10352436D01*
X12189682Y-10352436D02*
X12180158Y-10361960D01*
X12180158Y-10361960D02*
X12161110Y-10371484D01*
X12161110Y-10371484D02*
X12142062Y-10371484D01*
X12142062Y-10371484D02*
X12123015Y-10361960D01*
X12123015Y-10361960D02*
X12113491Y-10352436D01*
X12113491Y-10352436D02*
X12103967Y-10333389D01*
X12103967Y-10333389D02*
X12094443Y-10295293D01*
X12094443Y-10295293D02*
X12094443Y-10247674D01*
X12094443Y-10247674D02*
X12103967Y-10209579D01*
X12103967Y-10209579D02*
X12113491Y-10190531D01*
X12113491Y-10190531D02*
X12123015Y-10181008D01*
X12123015Y-10181008D02*
X12142062Y-10171484D01*
X12332539Y-10171484D02*
X12351586Y-10171484D01*
X12351586Y-10171484D02*
X12370634Y-10181008D01*
X12370634Y-10181008D02*
X12380158Y-10190531D01*
X12380158Y-10190531D02*
X12389682Y-10209579D01*
X12389682Y-10209579D02*
X12399205Y-10247674D01*
X12399205Y-10247674D02*
X12399205Y-10295293D01*
X12399205Y-10295293D02*
X12389682Y-10333389D01*
X12389682Y-10333389D02*
X12380158Y-10352436D01*
X12380158Y-10352436D02*
X12370634Y-10361960D01*
X12370634Y-10361960D02*
X12351586Y-10371484D01*
X12351586Y-10371484D02*
X12332539Y-10371484D01*
X12332539Y-10371484D02*
X12313491Y-10361960D01*
X12313491Y-10361960D02*
X12303967Y-10352436D01*
X12303967Y-10352436D02*
X12294443Y-10333389D01*
X12294443Y-10333389D02*
X12284920Y-10295293D01*
X12284920Y-10295293D02*
X12284920Y-10247674D01*
X12284920Y-10247674D02*
X12294443Y-10209579D01*
X12294443Y-10209579D02*
X12303967Y-10190531D01*
X12303967Y-10190531D02*
X12313491Y-10181008D01*
X12313491Y-10181008D02*
X12332539Y-10171484D01*
X12484920Y-10371484D02*
X12484920Y-10238150D01*
X12484920Y-10257198D02*
X12494443Y-10247674D01*
X12494443Y-10247674D02*
X12513491Y-10238150D01*
X12513491Y-10238150D02*
X12542063Y-10238150D01*
X12542063Y-10238150D02*
X12561110Y-10247674D01*
X12561110Y-10247674D02*
X12570634Y-10266722D01*
X12570634Y-10266722D02*
X12570634Y-10371484D01*
X12570634Y-10266722D02*
X12580158Y-10247674D01*
X12580158Y-10247674D02*
X12599205Y-10238150D01*
X12599205Y-10238150D02*
X12627777Y-10238150D01*
X12627777Y-10238150D02*
X12646824Y-10247674D01*
X12646824Y-10247674D02*
X12656348Y-10266722D01*
X12656348Y-10266722D02*
X12656348Y-10371484D01*
X12751586Y-10371484D02*
X12751586Y-10238150D01*
X12751586Y-10257198D02*
X12761110Y-10247674D01*
X12761110Y-10247674D02*
X12780158Y-10238150D01*
X12780158Y-10238150D02*
X12808729Y-10238150D01*
X12808729Y-10238150D02*
X12827777Y-10247674D01*
X12827777Y-10247674D02*
X12837301Y-10266722D01*
X12837301Y-10266722D02*
X12837301Y-10371484D01*
X12837301Y-10266722D02*
X12846824Y-10247674D01*
X12846824Y-10247674D02*
X12865872Y-10238150D01*
X12865872Y-10238150D02*
X12894443Y-10238150D01*
X12894443Y-10238150D02*
X12913491Y-10247674D01*
X12913491Y-10247674D02*
X12923015Y-10266722D01*
X12923015Y-10266722D02*
X12923015Y-10371484D01*
X13313491Y-10161960D02*
X13142063Y-10419103D01*
X13570634Y-10171484D02*
X13589682Y-10171484D01*
X13589682Y-10171484D02*
X13608729Y-10181008D01*
X13608729Y-10181008D02*
X13618253Y-10190531D01*
X13618253Y-10190531D02*
X13627777Y-10209579D01*
X13627777Y-10209579D02*
X13637301Y-10247674D01*
X13637301Y-10247674D02*
X13637301Y-10295293D01*
X13637301Y-10295293D02*
X13627777Y-10333389D01*
X13627777Y-10333389D02*
X13618253Y-10352436D01*
X13618253Y-10352436D02*
X13608729Y-10361960D01*
X13608729Y-10361960D02*
X13589682Y-10371484D01*
X13589682Y-10371484D02*
X13570634Y-10371484D01*
X13570634Y-10371484D02*
X13551586Y-10361960D01*
X13551586Y-10361960D02*
X13542063Y-10352436D01*
X13542063Y-10352436D02*
X13532539Y-10333389D01*
X13532539Y-10333389D02*
X13523015Y-10295293D01*
X13523015Y-10295293D02*
X13523015Y-10247674D01*
X13523015Y-10247674D02*
X13532539Y-10209579D01*
X13532539Y-10209579D02*
X13542063Y-10190531D01*
X13542063Y-10190531D02*
X13551586Y-10181008D01*
X13551586Y-10181008D02*
X13570634Y-10171484D01*
X13723015Y-10352436D02*
X13732539Y-10361960D01*
X13732539Y-10361960D02*
X13723015Y-10371484D01*
X13723015Y-10371484D02*
X13713491Y-10361960D01*
X13713491Y-10361960D02*
X13723015Y-10352436D01*
X13723015Y-10352436D02*
X13723015Y-10371484D01*
X13856348Y-10171484D02*
X13875396Y-10171484D01*
X13875396Y-10171484D02*
X13894444Y-10181008D01*
X13894444Y-10181008D02*
X13903967Y-10190531D01*
X13903967Y-10190531D02*
X13913491Y-10209579D01*
X13913491Y-10209579D02*
X13923015Y-10247674D01*
X13923015Y-10247674D02*
X13923015Y-10295293D01*
X13923015Y-10295293D02*
X13913491Y-10333389D01*
X13913491Y-10333389D02*
X13903967Y-10352436D01*
X13903967Y-10352436D02*
X13894444Y-10361960D01*
X13894444Y-10361960D02*
X13875396Y-10371484D01*
X13875396Y-10371484D02*
X13856348Y-10371484D01*
X13856348Y-10371484D02*
X13837301Y-10361960D01*
X13837301Y-10361960D02*
X13827777Y-10352436D01*
X13827777Y-10352436D02*
X13818253Y-10333389D01*
X13818253Y-10333389D02*
X13808729Y-10295293D01*
X13808729Y-10295293D02*
X13808729Y-10247674D01*
X13808729Y-10247674D02*
X13818253Y-10209579D01*
X13818253Y-10209579D02*
X13827777Y-10190531D01*
X13827777Y-10190531D02*
X13837301Y-10181008D01*
X13837301Y-10181008D02*
X13856348Y-10171484D01*
X14103967Y-10171484D02*
X14008729Y-10171484D01*
X14008729Y-10171484D02*
X13999206Y-10266722D01*
X13999206Y-10266722D02*
X14008729Y-10257198D01*
X14008729Y-10257198D02*
X14027777Y-10247674D01*
X14027777Y-10247674D02*
X14075396Y-10247674D01*
X14075396Y-10247674D02*
X14094444Y-10257198D01*
X14094444Y-10257198D02*
X14103967Y-10266722D01*
X14103967Y-10266722D02*
X14113491Y-10285770D01*
X14113491Y-10285770D02*
X14113491Y-10333389D01*
X14113491Y-10333389D02*
X14103967Y-10352436D01*
X14103967Y-10352436D02*
X14094444Y-10361960D01*
X14094444Y-10361960D02*
X14075396Y-10371484D01*
X14075396Y-10371484D02*
X14027777Y-10371484D01*
X14027777Y-10371484D02*
X14008729Y-10361960D01*
X14008729Y-10361960D02*
X13999206Y-10352436D01*
X14303967Y-10371484D02*
X14189682Y-10371484D01*
X14246825Y-10371484D02*
X14246825Y-10171484D01*
X14246825Y-10171484D02*
X14227777Y-10200055D01*
X14227777Y-10200055D02*
X14208729Y-10219103D01*
X14208729Y-10219103D02*
X14189682Y-10228627D01*
X14380158Y-10190531D02*
X14389682Y-10181008D01*
X14389682Y-10181008D02*
X14408729Y-10171484D01*
X14408729Y-10171484D02*
X14456348Y-10171484D01*
X14456348Y-10171484D02*
X14475396Y-10181008D01*
X14475396Y-10181008D02*
X14484920Y-10190531D01*
X14484920Y-10190531D02*
X14494444Y-10209579D01*
X14494444Y-10209579D02*
X14494444Y-10228627D01*
X14494444Y-10228627D02*
X14484920Y-10257198D01*
X14484920Y-10257198D02*
X14370634Y-10371484D01*
X14370634Y-10371484D02*
X14494444Y-10371484D01*
X14570634Y-10171484D02*
X14570634Y-10209579D01*
X14646825Y-10171484D02*
X14646825Y-10209579D01*
X14942063Y-10447674D02*
X14932539Y-10438150D01*
X14932539Y-10438150D02*
X14913491Y-10409579D01*
X14913491Y-10409579D02*
X14903968Y-10390531D01*
X14903968Y-10390531D02*
X14894444Y-10361960D01*
X14894444Y-10361960D02*
X14884920Y-10314341D01*
X14884920Y-10314341D02*
X14884920Y-10276246D01*
X14884920Y-10276246D02*
X14894444Y-10228627D01*
X14894444Y-10228627D02*
X14903968Y-10200055D01*
X14903968Y-10200055D02*
X14913491Y-10181008D01*
X14913491Y-10181008D02*
X14932539Y-10152436D01*
X14932539Y-10152436D02*
X14942063Y-10142912D01*
X14999206Y-10171484D02*
X15123015Y-10171484D01*
X15123015Y-10171484D02*
X15056348Y-10247674D01*
X15056348Y-10247674D02*
X15084920Y-10247674D01*
X15084920Y-10247674D02*
X15103968Y-10257198D01*
X15103968Y-10257198D02*
X15113491Y-10266722D01*
X15113491Y-10266722D02*
X15123015Y-10285770D01*
X15123015Y-10285770D02*
X15123015Y-10333389D01*
X15123015Y-10333389D02*
X15113491Y-10352436D01*
X15113491Y-10352436D02*
X15103968Y-10361960D01*
X15103968Y-10361960D02*
X15084920Y-10371484D01*
X15084920Y-10371484D02*
X15027777Y-10371484D01*
X15027777Y-10371484D02*
X15008729Y-10361960D01*
X15008729Y-10361960D02*
X14999206Y-10352436D01*
X15361110Y-10371484D02*
X15361110Y-10171484D01*
X15446825Y-10371484D02*
X15446825Y-10266722D01*
X15446825Y-10266722D02*
X15437301Y-10247674D01*
X15437301Y-10247674D02*
X15418253Y-10238150D01*
X15418253Y-10238150D02*
X15389682Y-10238150D01*
X15389682Y-10238150D02*
X15370634Y-10247674D01*
X15370634Y-10247674D02*
X15361110Y-10257198D01*
X15570634Y-10371484D02*
X15551587Y-10361960D01*
X15551587Y-10361960D02*
X15542063Y-10352436D01*
X15542063Y-10352436D02*
X15532539Y-10333389D01*
X15532539Y-10333389D02*
X15532539Y-10276246D01*
X15532539Y-10276246D02*
X15542063Y-10257198D01*
X15542063Y-10257198D02*
X15551587Y-10247674D01*
X15551587Y-10247674D02*
X15570634Y-10238150D01*
X15570634Y-10238150D02*
X15599206Y-10238150D01*
X15599206Y-10238150D02*
X15618253Y-10247674D01*
X15618253Y-10247674D02*
X15627777Y-10257198D01*
X15627777Y-10257198D02*
X15637301Y-10276246D01*
X15637301Y-10276246D02*
X15637301Y-10333389D01*
X15637301Y-10333389D02*
X15627777Y-10352436D01*
X15627777Y-10352436D02*
X15618253Y-10361960D01*
X15618253Y-10361960D02*
X15599206Y-10371484D01*
X15599206Y-10371484D02*
X15570634Y-10371484D01*
X15751587Y-10371484D02*
X15732539Y-10361960D01*
X15732539Y-10361960D02*
X15723015Y-10342912D01*
X15723015Y-10342912D02*
X15723015Y-10171484D01*
X15903968Y-10361960D02*
X15884920Y-10371484D01*
X15884920Y-10371484D02*
X15846825Y-10371484D01*
X15846825Y-10371484D02*
X15827777Y-10361960D01*
X15827777Y-10361960D02*
X15818253Y-10342912D01*
X15818253Y-10342912D02*
X15818253Y-10266722D01*
X15818253Y-10266722D02*
X15827777Y-10247674D01*
X15827777Y-10247674D02*
X15846825Y-10238150D01*
X15846825Y-10238150D02*
X15884920Y-10238150D01*
X15884920Y-10238150D02*
X15903968Y-10247674D01*
X15903968Y-10247674D02*
X15913491Y-10266722D01*
X15913491Y-10266722D02*
X15913491Y-10285770D01*
X15913491Y-10285770D02*
X15818253Y-10304817D01*
X15989682Y-10361960D02*
X16008730Y-10371484D01*
X16008730Y-10371484D02*
X16046825Y-10371484D01*
X16046825Y-10371484D02*
X16065872Y-10361960D01*
X16065872Y-10361960D02*
X16075396Y-10342912D01*
X16075396Y-10342912D02*
X16075396Y-10333389D01*
X16075396Y-10333389D02*
X16065872Y-10314341D01*
X16065872Y-10314341D02*
X16046825Y-10304817D01*
X16046825Y-10304817D02*
X16018253Y-10304817D01*
X16018253Y-10304817D02*
X15999206Y-10295293D01*
X15999206Y-10295293D02*
X15989682Y-10276246D01*
X15989682Y-10276246D02*
X15989682Y-10266722D01*
X15989682Y-10266722D02*
X15999206Y-10247674D01*
X15999206Y-10247674D02*
X16018253Y-10238150D01*
X16018253Y-10238150D02*
X16046825Y-10238150D01*
X16046825Y-10238150D02*
X16065872Y-10247674D01*
X16142063Y-10447674D02*
X16151587Y-10438150D01*
X16151587Y-10438150D02*
X16170634Y-10409579D01*
X16170634Y-10409579D02*
X16180158Y-10390531D01*
X16180158Y-10390531D02*
X16189682Y-10361960D01*
X16189682Y-10361960D02*
X16199206Y-10314341D01*
X16199206Y-10314341D02*
X16199206Y-10276246D01*
X16199206Y-10276246D02*
X16189682Y-10228627D01*
X16189682Y-10228627D02*
X16180158Y-10200055D01*
X16180158Y-10200055D02*
X16170634Y-10181008D01*
X16170634Y-10181008D02*
X16151587Y-10152436D01*
X16151587Y-10152436D02*
X16142063Y-10142912D01*
D13*
X11344741Y-10597741D02*
X11344741Y-10490259D01*
X11237259Y-10490259D01*
X11237259Y-10597741D01*
X11344741Y-10597741D01*
D11*
X11732539Y-10635484D02*
X11618253Y-10635484D01*
X11675396Y-10635484D02*
X11675396Y-10435484D01*
X11675396Y-10435484D02*
X11656348Y-10464055D01*
X11656348Y-10464055D02*
X11637301Y-10483103D01*
X11637301Y-10483103D02*
X11618253Y-10492627D01*
X11818253Y-10616436D02*
X11827777Y-10625960D01*
X11827777Y-10625960D02*
X11818253Y-10635484D01*
X11818253Y-10635484D02*
X11808729Y-10625960D01*
X11808729Y-10625960D02*
X11818253Y-10616436D01*
X11818253Y-10616436D02*
X11818253Y-10635484D01*
X12008729Y-10435484D02*
X11913491Y-10435484D01*
X11913491Y-10435484D02*
X11903967Y-10530722D01*
X11903967Y-10530722D02*
X11913491Y-10521198D01*
X11913491Y-10521198D02*
X11932539Y-10511674D01*
X11932539Y-10511674D02*
X11980158Y-10511674D01*
X11980158Y-10511674D02*
X11999205Y-10521198D01*
X11999205Y-10521198D02*
X12008729Y-10530722D01*
X12008729Y-10530722D02*
X12018253Y-10549770D01*
X12018253Y-10549770D02*
X12018253Y-10597389D01*
X12018253Y-10597389D02*
X12008729Y-10616436D01*
X12008729Y-10616436D02*
X11999205Y-10625960D01*
X11999205Y-10625960D02*
X11980158Y-10635484D01*
X11980158Y-10635484D02*
X11932539Y-10635484D01*
X11932539Y-10635484D02*
X11913491Y-10625960D01*
X11913491Y-10625960D02*
X11903967Y-10616436D01*
X12094443Y-10454531D02*
X12103967Y-10445008D01*
X12103967Y-10445008D02*
X12123015Y-10435484D01*
X12123015Y-10435484D02*
X12170634Y-10435484D01*
X12170634Y-10435484D02*
X12189682Y-10445008D01*
X12189682Y-10445008D02*
X12199205Y-10454531D01*
X12199205Y-10454531D02*
X12208729Y-10473579D01*
X12208729Y-10473579D02*
X12208729Y-10492627D01*
X12208729Y-10492627D02*
X12199205Y-10521198D01*
X12199205Y-10521198D02*
X12084920Y-10635484D01*
X12084920Y-10635484D02*
X12208729Y-10635484D01*
X12332539Y-10435484D02*
X12351586Y-10435484D01*
X12351586Y-10435484D02*
X12370634Y-10445008D01*
X12370634Y-10445008D02*
X12380158Y-10454531D01*
X12380158Y-10454531D02*
X12389682Y-10473579D01*
X12389682Y-10473579D02*
X12399205Y-10511674D01*
X12399205Y-10511674D02*
X12399205Y-10559293D01*
X12399205Y-10559293D02*
X12389682Y-10597389D01*
X12389682Y-10597389D02*
X12380158Y-10616436D01*
X12380158Y-10616436D02*
X12370634Y-10625960D01*
X12370634Y-10625960D02*
X12351586Y-10635484D01*
X12351586Y-10635484D02*
X12332539Y-10635484D01*
X12332539Y-10635484D02*
X12313491Y-10625960D01*
X12313491Y-10625960D02*
X12303967Y-10616436D01*
X12303967Y-10616436D02*
X12294443Y-10597389D01*
X12294443Y-10597389D02*
X12284920Y-10559293D01*
X12284920Y-10559293D02*
X12284920Y-10511674D01*
X12284920Y-10511674D02*
X12294443Y-10473579D01*
X12294443Y-10473579D02*
X12303967Y-10454531D01*
X12303967Y-10454531D02*
X12313491Y-10445008D01*
X12313491Y-10445008D02*
X12332539Y-10435484D01*
X12484920Y-10635484D02*
X12484920Y-10502150D01*
X12484920Y-10521198D02*
X12494443Y-10511674D01*
X12494443Y-10511674D02*
X12513491Y-10502150D01*
X12513491Y-10502150D02*
X12542063Y-10502150D01*
X12542063Y-10502150D02*
X12561110Y-10511674D01*
X12561110Y-10511674D02*
X12570634Y-10530722D01*
X12570634Y-10530722D02*
X12570634Y-10635484D01*
X12570634Y-10530722D02*
X12580158Y-10511674D01*
X12580158Y-10511674D02*
X12599205Y-10502150D01*
X12599205Y-10502150D02*
X12627777Y-10502150D01*
X12627777Y-10502150D02*
X12646824Y-10511674D01*
X12646824Y-10511674D02*
X12656348Y-10530722D01*
X12656348Y-10530722D02*
X12656348Y-10635484D01*
X12751586Y-10635484D02*
X12751586Y-10502150D01*
X12751586Y-10521198D02*
X12761110Y-10511674D01*
X12761110Y-10511674D02*
X12780158Y-10502150D01*
X12780158Y-10502150D02*
X12808729Y-10502150D01*
X12808729Y-10502150D02*
X12827777Y-10511674D01*
X12827777Y-10511674D02*
X12837301Y-10530722D01*
X12837301Y-10530722D02*
X12837301Y-10635484D01*
X12837301Y-10530722D02*
X12846824Y-10511674D01*
X12846824Y-10511674D02*
X12865872Y-10502150D01*
X12865872Y-10502150D02*
X12894443Y-10502150D01*
X12894443Y-10502150D02*
X12913491Y-10511674D01*
X12913491Y-10511674D02*
X12923015Y-10530722D01*
X12923015Y-10530722D02*
X12923015Y-10635484D01*
X13313491Y-10425960D02*
X13142063Y-10683103D01*
X13570634Y-10435484D02*
X13589682Y-10435484D01*
X13589682Y-10435484D02*
X13608729Y-10445008D01*
X13608729Y-10445008D02*
X13618253Y-10454531D01*
X13618253Y-10454531D02*
X13627777Y-10473579D01*
X13627777Y-10473579D02*
X13637301Y-10511674D01*
X13637301Y-10511674D02*
X13637301Y-10559293D01*
X13637301Y-10559293D02*
X13627777Y-10597389D01*
X13627777Y-10597389D02*
X13618253Y-10616436D01*
X13618253Y-10616436D02*
X13608729Y-10625960D01*
X13608729Y-10625960D02*
X13589682Y-10635484D01*
X13589682Y-10635484D02*
X13570634Y-10635484D01*
X13570634Y-10635484D02*
X13551586Y-10625960D01*
X13551586Y-10625960D02*
X13542063Y-10616436D01*
X13542063Y-10616436D02*
X13532539Y-10597389D01*
X13532539Y-10597389D02*
X13523015Y-10559293D01*
X13523015Y-10559293D02*
X13523015Y-10511674D01*
X13523015Y-10511674D02*
X13532539Y-10473579D01*
X13532539Y-10473579D02*
X13542063Y-10454531D01*
X13542063Y-10454531D02*
X13551586Y-10445008D01*
X13551586Y-10445008D02*
X13570634Y-10435484D01*
X13723015Y-10616436D02*
X13732539Y-10625960D01*
X13732539Y-10625960D02*
X13723015Y-10635484D01*
X13723015Y-10635484D02*
X13713491Y-10625960D01*
X13713491Y-10625960D02*
X13723015Y-10616436D01*
X13723015Y-10616436D02*
X13723015Y-10635484D01*
X13856348Y-10435484D02*
X13875396Y-10435484D01*
X13875396Y-10435484D02*
X13894444Y-10445008D01*
X13894444Y-10445008D02*
X13903967Y-10454531D01*
X13903967Y-10454531D02*
X13913491Y-10473579D01*
X13913491Y-10473579D02*
X13923015Y-10511674D01*
X13923015Y-10511674D02*
X13923015Y-10559293D01*
X13923015Y-10559293D02*
X13913491Y-10597389D01*
X13913491Y-10597389D02*
X13903967Y-10616436D01*
X13903967Y-10616436D02*
X13894444Y-10625960D01*
X13894444Y-10625960D02*
X13875396Y-10635484D01*
X13875396Y-10635484D02*
X13856348Y-10635484D01*
X13856348Y-10635484D02*
X13837301Y-10625960D01*
X13837301Y-10625960D02*
X13827777Y-10616436D01*
X13827777Y-10616436D02*
X13818253Y-10597389D01*
X13818253Y-10597389D02*
X13808729Y-10559293D01*
X13808729Y-10559293D02*
X13808729Y-10511674D01*
X13808729Y-10511674D02*
X13818253Y-10473579D01*
X13818253Y-10473579D02*
X13827777Y-10454531D01*
X13827777Y-10454531D02*
X13837301Y-10445008D01*
X13837301Y-10445008D02*
X13856348Y-10435484D01*
X14103967Y-10435484D02*
X14008729Y-10435484D01*
X14008729Y-10435484D02*
X13999206Y-10530722D01*
X13999206Y-10530722D02*
X14008729Y-10521198D01*
X14008729Y-10521198D02*
X14027777Y-10511674D01*
X14027777Y-10511674D02*
X14075396Y-10511674D01*
X14075396Y-10511674D02*
X14094444Y-10521198D01*
X14094444Y-10521198D02*
X14103967Y-10530722D01*
X14103967Y-10530722D02*
X14113491Y-10549770D01*
X14113491Y-10549770D02*
X14113491Y-10597389D01*
X14113491Y-10597389D02*
X14103967Y-10616436D01*
X14103967Y-10616436D02*
X14094444Y-10625960D01*
X14094444Y-10625960D02*
X14075396Y-10635484D01*
X14075396Y-10635484D02*
X14027777Y-10635484D01*
X14027777Y-10635484D02*
X14008729Y-10625960D01*
X14008729Y-10625960D02*
X13999206Y-10616436D01*
X14208729Y-10635484D02*
X14246825Y-10635484D01*
X14246825Y-10635484D02*
X14265872Y-10625960D01*
X14265872Y-10625960D02*
X14275396Y-10616436D01*
X14275396Y-10616436D02*
X14294444Y-10587865D01*
X14294444Y-10587865D02*
X14303967Y-10549770D01*
X14303967Y-10549770D02*
X14303967Y-10473579D01*
X14303967Y-10473579D02*
X14294444Y-10454531D01*
X14294444Y-10454531D02*
X14284920Y-10445008D01*
X14284920Y-10445008D02*
X14265872Y-10435484D01*
X14265872Y-10435484D02*
X14227777Y-10435484D01*
X14227777Y-10435484D02*
X14208729Y-10445008D01*
X14208729Y-10445008D02*
X14199206Y-10454531D01*
X14199206Y-10454531D02*
X14189682Y-10473579D01*
X14189682Y-10473579D02*
X14189682Y-10521198D01*
X14189682Y-10521198D02*
X14199206Y-10540246D01*
X14199206Y-10540246D02*
X14208729Y-10549770D01*
X14208729Y-10549770D02*
X14227777Y-10559293D01*
X14227777Y-10559293D02*
X14265872Y-10559293D01*
X14265872Y-10559293D02*
X14284920Y-10549770D01*
X14284920Y-10549770D02*
X14294444Y-10540246D01*
X14294444Y-10540246D02*
X14303967Y-10521198D01*
X14418253Y-10521198D02*
X14399206Y-10511674D01*
X14399206Y-10511674D02*
X14389682Y-10502150D01*
X14389682Y-10502150D02*
X14380158Y-10483103D01*
X14380158Y-10483103D02*
X14380158Y-10473579D01*
X14380158Y-10473579D02*
X14389682Y-10454531D01*
X14389682Y-10454531D02*
X14399206Y-10445008D01*
X14399206Y-10445008D02*
X14418253Y-10435484D01*
X14418253Y-10435484D02*
X14456348Y-10435484D01*
X14456348Y-10435484D02*
X14475396Y-10445008D01*
X14475396Y-10445008D02*
X14484920Y-10454531D01*
X14484920Y-10454531D02*
X14494444Y-10473579D01*
X14494444Y-10473579D02*
X14494444Y-10483103D01*
X14494444Y-10483103D02*
X14484920Y-10502150D01*
X14484920Y-10502150D02*
X14475396Y-10511674D01*
X14475396Y-10511674D02*
X14456348Y-10521198D01*
X14456348Y-10521198D02*
X14418253Y-10521198D01*
X14418253Y-10521198D02*
X14399206Y-10530722D01*
X14399206Y-10530722D02*
X14389682Y-10540246D01*
X14389682Y-10540246D02*
X14380158Y-10559293D01*
X14380158Y-10559293D02*
X14380158Y-10597389D01*
X14380158Y-10597389D02*
X14389682Y-10616436D01*
X14389682Y-10616436D02*
X14399206Y-10625960D01*
X14399206Y-10625960D02*
X14418253Y-10635484D01*
X14418253Y-10635484D02*
X14456348Y-10635484D01*
X14456348Y-10635484D02*
X14475396Y-10625960D01*
X14475396Y-10625960D02*
X14484920Y-10616436D01*
X14484920Y-10616436D02*
X14494444Y-10597389D01*
X14494444Y-10597389D02*
X14494444Y-10559293D01*
X14494444Y-10559293D02*
X14484920Y-10540246D01*
X14484920Y-10540246D02*
X14475396Y-10530722D01*
X14475396Y-10530722D02*
X14456348Y-10521198D01*
X14570634Y-10435484D02*
X14570634Y-10473579D01*
X14646825Y-10435484D02*
X14646825Y-10473579D01*
X14942063Y-10711674D02*
X14932539Y-10702150D01*
X14932539Y-10702150D02*
X14913491Y-10673579D01*
X14913491Y-10673579D02*
X14903968Y-10654531D01*
X14903968Y-10654531D02*
X14894444Y-10625960D01*
X14894444Y-10625960D02*
X14884920Y-10578341D01*
X14884920Y-10578341D02*
X14884920Y-10540246D01*
X14884920Y-10540246D02*
X14894444Y-10492627D01*
X14894444Y-10492627D02*
X14903968Y-10464055D01*
X14903968Y-10464055D02*
X14913491Y-10445008D01*
X14913491Y-10445008D02*
X14932539Y-10416436D01*
X14932539Y-10416436D02*
X14942063Y-10406912D01*
X15103968Y-10435484D02*
X15065872Y-10435484D01*
X15065872Y-10435484D02*
X15046825Y-10445008D01*
X15046825Y-10445008D02*
X15037301Y-10454531D01*
X15037301Y-10454531D02*
X15018253Y-10483103D01*
X15018253Y-10483103D02*
X15008729Y-10521198D01*
X15008729Y-10521198D02*
X15008729Y-10597389D01*
X15008729Y-10597389D02*
X15018253Y-10616436D01*
X15018253Y-10616436D02*
X15027777Y-10625960D01*
X15027777Y-10625960D02*
X15046825Y-10635484D01*
X15046825Y-10635484D02*
X15084920Y-10635484D01*
X15084920Y-10635484D02*
X15103968Y-10625960D01*
X15103968Y-10625960D02*
X15113491Y-10616436D01*
X15113491Y-10616436D02*
X15123015Y-10597389D01*
X15123015Y-10597389D02*
X15123015Y-10549770D01*
X15123015Y-10549770D02*
X15113491Y-10530722D01*
X15113491Y-10530722D02*
X15103968Y-10521198D01*
X15103968Y-10521198D02*
X15084920Y-10511674D01*
X15084920Y-10511674D02*
X15046825Y-10511674D01*
X15046825Y-10511674D02*
X15027777Y-10521198D01*
X15027777Y-10521198D02*
X15018253Y-10530722D01*
X15018253Y-10530722D02*
X15008729Y-10549770D01*
X15361110Y-10635484D02*
X15361110Y-10435484D01*
X15446825Y-10635484D02*
X15446825Y-10530722D01*
X15446825Y-10530722D02*
X15437301Y-10511674D01*
X15437301Y-10511674D02*
X15418253Y-10502150D01*
X15418253Y-10502150D02*
X15389682Y-10502150D01*
X15389682Y-10502150D02*
X15370634Y-10511674D01*
X15370634Y-10511674D02*
X15361110Y-10521198D01*
X15570634Y-10635484D02*
X15551587Y-10625960D01*
X15551587Y-10625960D02*
X15542063Y-10616436D01*
X15542063Y-10616436D02*
X15532539Y-10597389D01*
X15532539Y-10597389D02*
X15532539Y-10540246D01*
X15532539Y-10540246D02*
X15542063Y-10521198D01*
X15542063Y-10521198D02*
X15551587Y-10511674D01*
X15551587Y-10511674D02*
X15570634Y-10502150D01*
X15570634Y-10502150D02*
X15599206Y-10502150D01*
X15599206Y-10502150D02*
X15618253Y-10511674D01*
X15618253Y-10511674D02*
X15627777Y-10521198D01*
X15627777Y-10521198D02*
X15637301Y-10540246D01*
X15637301Y-10540246D02*
X15637301Y-10597389D01*
X15637301Y-10597389D02*
X15627777Y-10616436D01*
X15627777Y-10616436D02*
X15618253Y-10625960D01*
X15618253Y-10625960D02*
X15599206Y-10635484D01*
X15599206Y-10635484D02*
X15570634Y-10635484D01*
X15751587Y-10635484D02*
X15732539Y-10625960D01*
X15732539Y-10625960D02*
X15723015Y-10606912D01*
X15723015Y-10606912D02*
X15723015Y-10435484D01*
X15903968Y-10625960D02*
X15884920Y-10635484D01*
X15884920Y-10635484D02*
X15846825Y-10635484D01*
X15846825Y-10635484D02*
X15827777Y-10625960D01*
X15827777Y-10625960D02*
X15818253Y-10606912D01*
X15818253Y-10606912D02*
X15818253Y-10530722D01*
X15818253Y-10530722D02*
X15827777Y-10511674D01*
X15827777Y-10511674D02*
X15846825Y-10502150D01*
X15846825Y-10502150D02*
X15884920Y-10502150D01*
X15884920Y-10502150D02*
X15903968Y-10511674D01*
X15903968Y-10511674D02*
X15913491Y-10530722D01*
X15913491Y-10530722D02*
X15913491Y-10549770D01*
X15913491Y-10549770D02*
X15818253Y-10568817D01*
X15989682Y-10625960D02*
X16008730Y-10635484D01*
X16008730Y-10635484D02*
X16046825Y-10635484D01*
X16046825Y-10635484D02*
X16065872Y-10625960D01*
X16065872Y-10625960D02*
X16075396Y-10606912D01*
X16075396Y-10606912D02*
X16075396Y-10597389D01*
X16075396Y-10597389D02*
X16065872Y-10578341D01*
X16065872Y-10578341D02*
X16046825Y-10568817D01*
X16046825Y-10568817D02*
X16018253Y-10568817D01*
X16018253Y-10568817D02*
X15999206Y-10559293D01*
X15999206Y-10559293D02*
X15989682Y-10540246D01*
X15989682Y-10540246D02*
X15989682Y-10530722D01*
X15989682Y-10530722D02*
X15999206Y-10511674D01*
X15999206Y-10511674D02*
X16018253Y-10502150D01*
X16018253Y-10502150D02*
X16046825Y-10502150D01*
X16046825Y-10502150D02*
X16065872Y-10511674D01*
X16142063Y-10711674D02*
X16151587Y-10702150D01*
X16151587Y-10702150D02*
X16170634Y-10673579D01*
X16170634Y-10673579D02*
X16180158Y-10654531D01*
X16180158Y-10654531D02*
X16189682Y-10625960D01*
X16189682Y-10625960D02*
X16199206Y-10578341D01*
X16199206Y-10578341D02*
X16199206Y-10540246D01*
X16199206Y-10540246D02*
X16189682Y-10492627D01*
X16189682Y-10492627D02*
X16180158Y-10464055D01*
X16180158Y-10464055D02*
X16170634Y-10445008D01*
X16170634Y-10445008D02*
X16151587Y-10416436D01*
X16151587Y-10416436D02*
X16142063Y-10406912D01*
X11267000Y-10916000D02*
X11367000Y-10816000D01*
X11267000Y-10716000D01*
X11167000Y-10816000D01*
X11267000Y-10916000D01*
X11608729Y-10707484D02*
X11732539Y-10707484D01*
X11732539Y-10707484D02*
X11665872Y-10783674D01*
X11665872Y-10783674D02*
X11694443Y-10783674D01*
X11694443Y-10783674D02*
X11713491Y-10793198D01*
X11713491Y-10793198D02*
X11723015Y-10802722D01*
X11723015Y-10802722D02*
X11732539Y-10821770D01*
X11732539Y-10821770D02*
X11732539Y-10869389D01*
X11732539Y-10869389D02*
X11723015Y-10888436D01*
X11723015Y-10888436D02*
X11713491Y-10897960D01*
X11713491Y-10897960D02*
X11694443Y-10907484D01*
X11694443Y-10907484D02*
X11637301Y-10907484D01*
X11637301Y-10907484D02*
X11618253Y-10897960D01*
X11618253Y-10897960D02*
X11608729Y-10888436D01*
X11818253Y-10888436D02*
X11827777Y-10897960D01*
X11827777Y-10897960D02*
X11818253Y-10907484D01*
X11818253Y-10907484D02*
X11808729Y-10897960D01*
X11808729Y-10897960D02*
X11818253Y-10888436D01*
X11818253Y-10888436D02*
X11818253Y-10907484D01*
X11903967Y-10726531D02*
X11913491Y-10717008D01*
X11913491Y-10717008D02*
X11932539Y-10707484D01*
X11932539Y-10707484D02*
X11980158Y-10707484D01*
X11980158Y-10707484D02*
X11999205Y-10717008D01*
X11999205Y-10717008D02*
X12008729Y-10726531D01*
X12008729Y-10726531D02*
X12018253Y-10745579D01*
X12018253Y-10745579D02*
X12018253Y-10764627D01*
X12018253Y-10764627D02*
X12008729Y-10793198D01*
X12008729Y-10793198D02*
X11894443Y-10907484D01*
X11894443Y-10907484D02*
X12018253Y-10907484D01*
X12142062Y-10707484D02*
X12161110Y-10707484D01*
X12161110Y-10707484D02*
X12180158Y-10717008D01*
X12180158Y-10717008D02*
X12189682Y-10726531D01*
X12189682Y-10726531D02*
X12199205Y-10745579D01*
X12199205Y-10745579D02*
X12208729Y-10783674D01*
X12208729Y-10783674D02*
X12208729Y-10831293D01*
X12208729Y-10831293D02*
X12199205Y-10869389D01*
X12199205Y-10869389D02*
X12189682Y-10888436D01*
X12189682Y-10888436D02*
X12180158Y-10897960D01*
X12180158Y-10897960D02*
X12161110Y-10907484D01*
X12161110Y-10907484D02*
X12142062Y-10907484D01*
X12142062Y-10907484D02*
X12123015Y-10897960D01*
X12123015Y-10897960D02*
X12113491Y-10888436D01*
X12113491Y-10888436D02*
X12103967Y-10869389D01*
X12103967Y-10869389D02*
X12094443Y-10831293D01*
X12094443Y-10831293D02*
X12094443Y-10783674D01*
X12094443Y-10783674D02*
X12103967Y-10745579D01*
X12103967Y-10745579D02*
X12113491Y-10726531D01*
X12113491Y-10726531D02*
X12123015Y-10717008D01*
X12123015Y-10717008D02*
X12142062Y-10707484D01*
X12332539Y-10707484D02*
X12351586Y-10707484D01*
X12351586Y-10707484D02*
X12370634Y-10717008D01*
X12370634Y-10717008D02*
X12380158Y-10726531D01*
X12380158Y-10726531D02*
X12389682Y-10745579D01*
X12389682Y-10745579D02*
X12399205Y-10783674D01*
X12399205Y-10783674D02*
X12399205Y-10831293D01*
X12399205Y-10831293D02*
X12389682Y-10869389D01*
X12389682Y-10869389D02*
X12380158Y-10888436D01*
X12380158Y-10888436D02*
X12370634Y-10897960D01*
X12370634Y-10897960D02*
X12351586Y-10907484D01*
X12351586Y-10907484D02*
X12332539Y-10907484D01*
X12332539Y-10907484D02*
X12313491Y-10897960D01*
X12313491Y-10897960D02*
X12303967Y-10888436D01*
X12303967Y-10888436D02*
X12294443Y-10869389D01*
X12294443Y-10869389D02*
X12284920Y-10831293D01*
X12284920Y-10831293D02*
X12284920Y-10783674D01*
X12284920Y-10783674D02*
X12294443Y-10745579D01*
X12294443Y-10745579D02*
X12303967Y-10726531D01*
X12303967Y-10726531D02*
X12313491Y-10717008D01*
X12313491Y-10717008D02*
X12332539Y-10707484D01*
X12484920Y-10907484D02*
X12484920Y-10774150D01*
X12484920Y-10793198D02*
X12494443Y-10783674D01*
X12494443Y-10783674D02*
X12513491Y-10774150D01*
X12513491Y-10774150D02*
X12542063Y-10774150D01*
X12542063Y-10774150D02*
X12561110Y-10783674D01*
X12561110Y-10783674D02*
X12570634Y-10802722D01*
X12570634Y-10802722D02*
X12570634Y-10907484D01*
X12570634Y-10802722D02*
X12580158Y-10783674D01*
X12580158Y-10783674D02*
X12599205Y-10774150D01*
X12599205Y-10774150D02*
X12627777Y-10774150D01*
X12627777Y-10774150D02*
X12646824Y-10783674D01*
X12646824Y-10783674D02*
X12656348Y-10802722D01*
X12656348Y-10802722D02*
X12656348Y-10907484D01*
X12751586Y-10907484D02*
X12751586Y-10774150D01*
X12751586Y-10793198D02*
X12761110Y-10783674D01*
X12761110Y-10783674D02*
X12780158Y-10774150D01*
X12780158Y-10774150D02*
X12808729Y-10774150D01*
X12808729Y-10774150D02*
X12827777Y-10783674D01*
X12827777Y-10783674D02*
X12837301Y-10802722D01*
X12837301Y-10802722D02*
X12837301Y-10907484D01*
X12837301Y-10802722D02*
X12846824Y-10783674D01*
X12846824Y-10783674D02*
X12865872Y-10774150D01*
X12865872Y-10774150D02*
X12894443Y-10774150D01*
X12894443Y-10774150D02*
X12913491Y-10783674D01*
X12913491Y-10783674D02*
X12923015Y-10802722D01*
X12923015Y-10802722D02*
X12923015Y-10907484D01*
X13313491Y-10697960D02*
X13142063Y-10955103D01*
X13570634Y-10707484D02*
X13589682Y-10707484D01*
X13589682Y-10707484D02*
X13608729Y-10717008D01*
X13608729Y-10717008D02*
X13618253Y-10726531D01*
X13618253Y-10726531D02*
X13627777Y-10745579D01*
X13627777Y-10745579D02*
X13637301Y-10783674D01*
X13637301Y-10783674D02*
X13637301Y-10831293D01*
X13637301Y-10831293D02*
X13627777Y-10869389D01*
X13627777Y-10869389D02*
X13618253Y-10888436D01*
X13618253Y-10888436D02*
X13608729Y-10897960D01*
X13608729Y-10897960D02*
X13589682Y-10907484D01*
X13589682Y-10907484D02*
X13570634Y-10907484D01*
X13570634Y-10907484D02*
X13551586Y-10897960D01*
X13551586Y-10897960D02*
X13542063Y-10888436D01*
X13542063Y-10888436D02*
X13532539Y-10869389D01*
X13532539Y-10869389D02*
X13523015Y-10831293D01*
X13523015Y-10831293D02*
X13523015Y-10783674D01*
X13523015Y-10783674D02*
X13532539Y-10745579D01*
X13532539Y-10745579D02*
X13542063Y-10726531D01*
X13542063Y-10726531D02*
X13551586Y-10717008D01*
X13551586Y-10717008D02*
X13570634Y-10707484D01*
X13723015Y-10888436D02*
X13732539Y-10897960D01*
X13732539Y-10897960D02*
X13723015Y-10907484D01*
X13723015Y-10907484D02*
X13713491Y-10897960D01*
X13713491Y-10897960D02*
X13723015Y-10888436D01*
X13723015Y-10888436D02*
X13723015Y-10907484D01*
X13923015Y-10907484D02*
X13808729Y-10907484D01*
X13865872Y-10907484D02*
X13865872Y-10707484D01*
X13865872Y-10707484D02*
X13846825Y-10736055D01*
X13846825Y-10736055D02*
X13827777Y-10755103D01*
X13827777Y-10755103D02*
X13808729Y-10764627D01*
X13999206Y-10726531D02*
X14008729Y-10717008D01*
X14008729Y-10717008D02*
X14027777Y-10707484D01*
X14027777Y-10707484D02*
X14075396Y-10707484D01*
X14075396Y-10707484D02*
X14094444Y-10717008D01*
X14094444Y-10717008D02*
X14103967Y-10726531D01*
X14103967Y-10726531D02*
X14113491Y-10745579D01*
X14113491Y-10745579D02*
X14113491Y-10764627D01*
X14113491Y-10764627D02*
X14103967Y-10793198D01*
X14103967Y-10793198D02*
X13989682Y-10907484D01*
X13989682Y-10907484D02*
X14113491Y-10907484D01*
X14284920Y-10707484D02*
X14246825Y-10707484D01*
X14246825Y-10707484D02*
X14227777Y-10717008D01*
X14227777Y-10717008D02*
X14218253Y-10726531D01*
X14218253Y-10726531D02*
X14199206Y-10755103D01*
X14199206Y-10755103D02*
X14189682Y-10793198D01*
X14189682Y-10793198D02*
X14189682Y-10869389D01*
X14189682Y-10869389D02*
X14199206Y-10888436D01*
X14199206Y-10888436D02*
X14208729Y-10897960D01*
X14208729Y-10897960D02*
X14227777Y-10907484D01*
X14227777Y-10907484D02*
X14265872Y-10907484D01*
X14265872Y-10907484D02*
X14284920Y-10897960D01*
X14284920Y-10897960D02*
X14294444Y-10888436D01*
X14294444Y-10888436D02*
X14303967Y-10869389D01*
X14303967Y-10869389D02*
X14303967Y-10821770D01*
X14303967Y-10821770D02*
X14294444Y-10802722D01*
X14294444Y-10802722D02*
X14284920Y-10793198D01*
X14284920Y-10793198D02*
X14265872Y-10783674D01*
X14265872Y-10783674D02*
X14227777Y-10783674D01*
X14227777Y-10783674D02*
X14208729Y-10793198D01*
X14208729Y-10793198D02*
X14199206Y-10802722D01*
X14199206Y-10802722D02*
X14189682Y-10821770D01*
X14427777Y-10707484D02*
X14446825Y-10707484D01*
X14446825Y-10707484D02*
X14465872Y-10717008D01*
X14465872Y-10717008D02*
X14475396Y-10726531D01*
X14475396Y-10726531D02*
X14484920Y-10745579D01*
X14484920Y-10745579D02*
X14494444Y-10783674D01*
X14494444Y-10783674D02*
X14494444Y-10831293D01*
X14494444Y-10831293D02*
X14484920Y-10869389D01*
X14484920Y-10869389D02*
X14475396Y-10888436D01*
X14475396Y-10888436D02*
X14465872Y-10897960D01*
X14465872Y-10897960D02*
X14446825Y-10907484D01*
X14446825Y-10907484D02*
X14427777Y-10907484D01*
X14427777Y-10907484D02*
X14408729Y-10897960D01*
X14408729Y-10897960D02*
X14399206Y-10888436D01*
X14399206Y-10888436D02*
X14389682Y-10869389D01*
X14389682Y-10869389D02*
X14380158Y-10831293D01*
X14380158Y-10831293D02*
X14380158Y-10783674D01*
X14380158Y-10783674D02*
X14389682Y-10745579D01*
X14389682Y-10745579D02*
X14399206Y-10726531D01*
X14399206Y-10726531D02*
X14408729Y-10717008D01*
X14408729Y-10717008D02*
X14427777Y-10707484D01*
X14570634Y-10707484D02*
X14570634Y-10745579D01*
X14646825Y-10707484D02*
X14646825Y-10745579D01*
X14942063Y-10983674D02*
X14932539Y-10974150D01*
X14932539Y-10974150D02*
X14913491Y-10945579D01*
X14913491Y-10945579D02*
X14903968Y-10926531D01*
X14903968Y-10926531D02*
X14894444Y-10897960D01*
X14894444Y-10897960D02*
X14884920Y-10850341D01*
X14884920Y-10850341D02*
X14884920Y-10812246D01*
X14884920Y-10812246D02*
X14894444Y-10764627D01*
X14894444Y-10764627D02*
X14903968Y-10736055D01*
X14903968Y-10736055D02*
X14913491Y-10717008D01*
X14913491Y-10717008D02*
X14932539Y-10688436D01*
X14932539Y-10688436D02*
X14942063Y-10678912D01*
X15103968Y-10774150D02*
X15103968Y-10907484D01*
X15056348Y-10697960D02*
X15008729Y-10840817D01*
X15008729Y-10840817D02*
X15132539Y-10840817D01*
X15361110Y-10907484D02*
X15361110Y-10707484D01*
X15446825Y-10907484D02*
X15446825Y-10802722D01*
X15446825Y-10802722D02*
X15437301Y-10783674D01*
X15437301Y-10783674D02*
X15418253Y-10774150D01*
X15418253Y-10774150D02*
X15389682Y-10774150D01*
X15389682Y-10774150D02*
X15370634Y-10783674D01*
X15370634Y-10783674D02*
X15361110Y-10793198D01*
X15570634Y-10907484D02*
X15551587Y-10897960D01*
X15551587Y-10897960D02*
X15542063Y-10888436D01*
X15542063Y-10888436D02*
X15532539Y-10869389D01*
X15532539Y-10869389D02*
X15532539Y-10812246D01*
X15532539Y-10812246D02*
X15542063Y-10793198D01*
X15542063Y-10793198D02*
X15551587Y-10783674D01*
X15551587Y-10783674D02*
X15570634Y-10774150D01*
X15570634Y-10774150D02*
X15599206Y-10774150D01*
X15599206Y-10774150D02*
X15618253Y-10783674D01*
X15618253Y-10783674D02*
X15627777Y-10793198D01*
X15627777Y-10793198D02*
X15637301Y-10812246D01*
X15637301Y-10812246D02*
X15637301Y-10869389D01*
X15637301Y-10869389D02*
X15627777Y-10888436D01*
X15627777Y-10888436D02*
X15618253Y-10897960D01*
X15618253Y-10897960D02*
X15599206Y-10907484D01*
X15599206Y-10907484D02*
X15570634Y-10907484D01*
X15751587Y-10907484D02*
X15732539Y-10897960D01*
X15732539Y-10897960D02*
X15723015Y-10878912D01*
X15723015Y-10878912D02*
X15723015Y-10707484D01*
X15903968Y-10897960D02*
X15884920Y-10907484D01*
X15884920Y-10907484D02*
X15846825Y-10907484D01*
X15846825Y-10907484D02*
X15827777Y-10897960D01*
X15827777Y-10897960D02*
X15818253Y-10878912D01*
X15818253Y-10878912D02*
X15818253Y-10802722D01*
X15818253Y-10802722D02*
X15827777Y-10783674D01*
X15827777Y-10783674D02*
X15846825Y-10774150D01*
X15846825Y-10774150D02*
X15884920Y-10774150D01*
X15884920Y-10774150D02*
X15903968Y-10783674D01*
X15903968Y-10783674D02*
X15913491Y-10802722D01*
X15913491Y-10802722D02*
X15913491Y-10821770D01*
X15913491Y-10821770D02*
X15818253Y-10840817D01*
X15989682Y-10897960D02*
X16008730Y-10907484D01*
X16008730Y-10907484D02*
X16046825Y-10907484D01*
X16046825Y-10907484D02*
X16065872Y-10897960D01*
X16065872Y-10897960D02*
X16075396Y-10878912D01*
X16075396Y-10878912D02*
X16075396Y-10869389D01*
X16075396Y-10869389D02*
X16065872Y-10850341D01*
X16065872Y-10850341D02*
X16046825Y-10840817D01*
X16046825Y-10840817D02*
X16018253Y-10840817D01*
X16018253Y-10840817D02*
X15999206Y-10831293D01*
X15999206Y-10831293D02*
X15989682Y-10812246D01*
X15989682Y-10812246D02*
X15989682Y-10802722D01*
X15989682Y-10802722D02*
X15999206Y-10783674D01*
X15999206Y-10783674D02*
X16018253Y-10774150D01*
X16018253Y-10774150D02*
X16046825Y-10774150D01*
X16046825Y-10774150D02*
X16065872Y-10783674D01*
X16142063Y-10983674D02*
X16151587Y-10974150D01*
X16151587Y-10974150D02*
X16170634Y-10945579D01*
X16170634Y-10945579D02*
X16180158Y-10926531D01*
X16180158Y-10926531D02*
X16189682Y-10897960D01*
X16189682Y-10897960D02*
X16199206Y-10850341D01*
X16199206Y-10850341D02*
X16199206Y-10812246D01*
X16199206Y-10812246D02*
X16189682Y-10764627D01*
X16189682Y-10764627D02*
X16180158Y-10736055D01*
X16180158Y-10736055D02*
X16170634Y-10717008D01*
X16170634Y-10717008D02*
X16151587Y-10688436D01*
X16151587Y-10688436D02*
X16142063Y-10678912D01*
M02*
