%TF.GenerationSoftware,KiCad,Pcbnew,7.0.10*%
%TF.CreationDate,2025-11-30T12:43:51-05:00*%
%TF.ProjectId,Relay_Helo,52656c61-795f-4486-956c-6f2e6b696361,rev?*%
%TF.SameCoordinates,Original*%
%TF.FileFunction,Copper,L1,Top*%
%TF.FilePolarity,Positive*%
%FSLAX46Y46*%
G04 Gerber Fmt 4.6, Leading zero omitted, Abs format (unit mm)*
G04 Created by KiCad (PCBNEW 7.0.10) date 2025-11-30 12:43:51*
%MOMM*%
%LPD*%
G01*
G04 APERTURE LIST*
G04 Aperture macros list*
%AMRoundRect*
0 Rectangle with rounded corners*
0 $1 Rounding radius*
0 $2 $3 $4 $5 $6 $7 $8 $9 X,Y pos of 4 corners*
0 Add a 4 corners polygon primitive as box body*
4,1,4,$2,$3,$4,$5,$6,$7,$8,$9,$2,$3,0*
0 Add four circle primitives for the rounded corners*
1,1,$1+$1,$2,$3*
1,1,$1+$1,$4,$5*
1,1,$1+$1,$6,$7*
1,1,$1+$1,$8,$9*
0 Add four rect primitives between the rounded corners*
20,1,$1+$1,$2,$3,$4,$5,0*
20,1,$1+$1,$4,$5,$6,$7,0*
20,1,$1+$1,$6,$7,$8,$9,0*
20,1,$1+$1,$8,$9,$2,$3,0*%
G04 Aperture macros list end*
%TA.AperFunction,SMDPad,CuDef*%
%ADD10RoundRect,0.218750X-0.256250X0.218750X-0.256250X-0.218750X0.256250X-0.218750X0.256250X0.218750X0*%
%TD*%
%TA.AperFunction,ComponentPad*%
%ADD11R,3.000000X3.000000*%
%TD*%
%TA.AperFunction,ComponentPad*%
%ADD12C,3.000000*%
%TD*%
%TA.AperFunction,SMDPad,CuDef*%
%ADD13RoundRect,0.200000X-0.275000X0.200000X-0.275000X-0.200000X0.275000X-0.200000X0.275000X0.200000X0*%
%TD*%
%TA.AperFunction,SMDPad,CuDef*%
%ADD14RoundRect,0.150000X-0.587500X-0.150000X0.587500X-0.150000X0.587500X0.150000X-0.587500X0.150000X0*%
%TD*%
%TA.AperFunction,SMDPad,CuDef*%
%ADD15RoundRect,0.200000X-0.200000X-0.275000X0.200000X-0.275000X0.200000X0.275000X-0.200000X0.275000X0*%
%TD*%
%TA.AperFunction,ComponentPad*%
%ADD16C,5.600000*%
%TD*%
%TA.AperFunction,ComponentPad*%
%ADD17C,2.500000*%
%TD*%
%TA.AperFunction,SMDPad,CuDef*%
%ADD18RoundRect,0.225000X-0.375000X0.225000X-0.375000X-0.225000X0.375000X-0.225000X0.375000X0.225000X0*%
%TD*%
%TA.AperFunction,ViaPad*%
%ADD19C,0.600000*%
%TD*%
%TA.AperFunction,Conductor*%
%ADD20C,0.500000*%
%TD*%
%TA.AperFunction,Conductor*%
%ADD21C,0.300000*%
%TD*%
%TA.AperFunction,Conductor*%
%ADD22C,1.500000*%
%TD*%
G04 APERTURE END LIST*
D10*
%TO.P,D2,1,K*%
%TO.N,GND*%
X129620000Y-69875000D03*
%TO.P,D2,2,A*%
%TO.N,Net-(D2-A)*%
X129620000Y-71450000D03*
%TD*%
D11*
%TO.P,J1,1,Pin_1*%
%TO.N,+5V*%
X123840000Y-80490000D03*
D12*
%TO.P,J1,2,Pin_2*%
%TO.N,/CONTROL*%
X123840000Y-75410000D03*
%TO.P,J1,3,Pin_3*%
%TO.N,GND*%
X123840000Y-70330000D03*
%TD*%
D13*
%TO.P,R3,1*%
%TO.N,Net-(D2-A)*%
X129620000Y-73737500D03*
%TO.P,R3,2*%
%TO.N,/CONTROL*%
X129620000Y-75387500D03*
%TD*%
D14*
%TO.P,Q1,1,E*%
%TO.N,GND*%
X133830000Y-80620000D03*
%TO.P,Q1,2,B*%
%TO.N,Net-(Q1-B)*%
X133830000Y-82520000D03*
%TO.P,Q1,3,C*%
%TO.N,Net-(D1-A)*%
X135705000Y-81570000D03*
%TD*%
D15*
%TO.P,R2,1*%
%TO.N,GND*%
X129655000Y-82490000D03*
%TO.P,R2,2*%
%TO.N,Net-(Q1-B)*%
X131305000Y-82490000D03*
%TD*%
D16*
%TO.P,REF\u002A\u002A,1*%
%TO.N,N/C*%
X172380000Y-64100000D03*
%TD*%
%TO.P,REF\u002A\u002A,1*%
%TO.N,GND*%
X118000000Y-64100000D03*
%TD*%
D11*
%TO.P,J2,1,Pin_1*%
%TO.N,/NC*%
X166090000Y-70490000D03*
D12*
%TO.P,J2,2,Pin_2*%
%TO.N,/COM*%
X166090000Y-75570000D03*
%TO.P,J2,3,Pin_3*%
%TO.N,/NO*%
X166090000Y-80650000D03*
%TD*%
D16*
%TO.P,REF\u002A\u002A,1*%
%TO.N,GND*%
X118000000Y-87000000D03*
%TD*%
%TO.P,REF\u002A\u002A,1*%
%TO.N,N/C*%
X172380000Y-86860000D03*
%TD*%
D15*
%TO.P,R1,1*%
%TO.N,/CONTROL*%
X129605000Y-79410000D03*
%TO.P,R1,2*%
%TO.N,Net-(Q1-B)*%
X131255000Y-79410000D03*
%TD*%
D12*
%TO.P,K2,1*%
%TO.N,/COM*%
X142310000Y-75510000D03*
D17*
%TO.P,K2,2*%
%TO.N,Net-(D1-A)*%
X144260000Y-81560000D03*
D12*
%TO.P,K2,3*%
%TO.N,/NO*%
X156460000Y-81560000D03*
%TO.P,K2,4*%
%TO.N,/NC*%
X156510000Y-69510000D03*
D17*
%TO.P,K2,5*%
%TO.N,+5V*%
X144260000Y-69560000D03*
%TD*%
D18*
%TO.P,D1,1,K*%
%TO.N,+5V*%
X135710000Y-73960000D03*
%TO.P,D1,2,A*%
%TO.N,Net-(D1-A)*%
X135710000Y-77260000D03*
%TD*%
D19*
%TO.N,+5V*%
X135710000Y-75600000D03*
%TD*%
D20*
%TO.N,+5V*%
X144260000Y-69560000D02*
X137930000Y-69560000D01*
X135710000Y-71780000D02*
X135710000Y-73960000D01*
X137930000Y-69560000D02*
X135710000Y-71780000D01*
X135710000Y-73960000D02*
X135710000Y-75600000D01*
%TO.N,Net-(D1-A)*%
X135710000Y-77260000D02*
X135710000Y-81565000D01*
D21*
X135710000Y-81565000D02*
X135705000Y-81570000D01*
X144250000Y-81570000D02*
X144260000Y-81560000D01*
D20*
X135705000Y-81570000D02*
X144250000Y-81570000D01*
D21*
%TO.N,Net-(D2-A)*%
X129620000Y-73737500D02*
X129620000Y-71450000D01*
%TO.N,/CONTROL*%
X129597500Y-75410000D02*
X129620000Y-75387500D01*
X129620000Y-75387500D02*
X129620000Y-79395000D01*
X129620000Y-79395000D02*
X129605000Y-79410000D01*
X123840000Y-75410000D02*
X129597500Y-75410000D01*
D22*
%TO.N,/NO*%
X162950000Y-80650000D02*
X162040000Y-81560000D01*
X162040000Y-81560000D02*
X156460000Y-81560000D01*
X166090000Y-80650000D02*
X162950000Y-80650000D01*
%TO.N,/NC*%
X161140000Y-70490000D02*
X160160000Y-69510000D01*
X166090000Y-70490000D02*
X161140000Y-70490000D01*
X160160000Y-69510000D02*
X156510000Y-69510000D01*
%TO.N,/COM*%
X142370000Y-75570000D02*
X142310000Y-75510000D01*
X166090000Y-75570000D02*
X142370000Y-75570000D01*
D21*
%TO.N,Net-(Q1-B)*%
X133800000Y-82490000D02*
X133830000Y-82520000D01*
X131305000Y-82490000D02*
X133800000Y-82490000D01*
X131255000Y-79410000D02*
X131255000Y-82440000D01*
X131255000Y-82440000D02*
X131305000Y-82490000D01*
%TD*%
%TA.AperFunction,Conductor*%
%TO.N,GND*%
G36*
X122504879Y-60230185D02*
G01*
X122550634Y-60282989D01*
X122561840Y-60334322D01*
X122570000Y-66030000D01*
X139698149Y-66030000D01*
X139765188Y-66049685D01*
X139810943Y-66102489D01*
X139822149Y-66153963D01*
X139822990Y-68935463D01*
X139803326Y-69002508D01*
X139750536Y-69048279D01*
X139698990Y-69059500D01*
X137997143Y-69059500D01*
X137970785Y-69056666D01*
X137966074Y-69055641D01*
X137966070Y-69055641D01*
X137916539Y-69059184D01*
X137907692Y-69059500D01*
X137894200Y-69059500D01*
X137888063Y-69060382D01*
X137880840Y-69061420D01*
X137872054Y-69062365D01*
X137822516Y-69065909D01*
X137822513Y-69065910D01*
X137817986Y-69067598D01*
X137792327Y-69074146D01*
X137787550Y-69074833D01*
X137787543Y-69074835D01*
X137742365Y-69095466D01*
X137734191Y-69098851D01*
X137687675Y-69116200D01*
X137687664Y-69116206D01*
X137683799Y-69119100D01*
X137661020Y-69132615D01*
X137656636Y-69134617D01*
X137656625Y-69134624D01*
X137619108Y-69167132D01*
X137612226Y-69172678D01*
X137601403Y-69180780D01*
X137591854Y-69190329D01*
X137585384Y-69196353D01*
X137547861Y-69228867D01*
X137547854Y-69228876D01*
X137545243Y-69232938D01*
X137528616Y-69253568D01*
X135403568Y-71378616D01*
X135382938Y-71395243D01*
X135378876Y-71397854D01*
X135378867Y-71397861D01*
X135346353Y-71435384D01*
X135340329Y-71441854D01*
X135330780Y-71451403D01*
X135322678Y-71462226D01*
X135317132Y-71469108D01*
X135284624Y-71506625D01*
X135284617Y-71506636D01*
X135282615Y-71511020D01*
X135269100Y-71533799D01*
X135266206Y-71537664D01*
X135266200Y-71537675D01*
X135248851Y-71584191D01*
X135245466Y-71592365D01*
X135224835Y-71637543D01*
X135224833Y-71637550D01*
X135224146Y-71642327D01*
X135217598Y-71667986D01*
X135215910Y-71672513D01*
X135215909Y-71672516D01*
X135212365Y-71722054D01*
X135211420Y-71730845D01*
X135209500Y-71744200D01*
X135209500Y-71757690D01*
X135209184Y-71766537D01*
X135205641Y-71816069D01*
X135205641Y-71816073D01*
X135206666Y-71820785D01*
X135209500Y-71847143D01*
X135209500Y-73188216D01*
X135189815Y-73255255D01*
X135137011Y-73301010D01*
X135128835Y-73304397D01*
X135104776Y-73313370D01*
X135104773Y-73313372D01*
X134995313Y-73395313D01*
X134913373Y-73504771D01*
X134865587Y-73632889D01*
X134859500Y-73689498D01*
X134859500Y-74230481D01*
X134859501Y-74230490D01*
X134865587Y-74287114D01*
X134903217Y-74388000D01*
X134913372Y-74415226D01*
X134995313Y-74524687D01*
X135104774Y-74606628D01*
X135128836Y-74615602D01*
X135184767Y-74657473D01*
X135209184Y-74722937D01*
X135209500Y-74731783D01*
X135209500Y-75345124D01*
X135200062Y-75392572D01*
X135180453Y-75439912D01*
X135173669Y-75456293D01*
X135154750Y-75599999D01*
X135154750Y-75600000D01*
X135164180Y-75671630D01*
X135173670Y-75743708D01*
X135173671Y-75743712D01*
X135229137Y-75877622D01*
X135229138Y-75877624D01*
X135229139Y-75877625D01*
X135317379Y-75992621D01*
X135432375Y-76080861D01*
X135566291Y-76136330D01*
X135693280Y-76153048D01*
X135709999Y-76155250D01*
X135710000Y-76155250D01*
X135710001Y-76155250D01*
X135724977Y-76153278D01*
X135853709Y-76136330D01*
X135987625Y-76080861D01*
X136102621Y-75992621D01*
X136190861Y-75877625D01*
X136246330Y-75743709D01*
X136265250Y-75600000D01*
X136246330Y-75456291D01*
X136219937Y-75392572D01*
X136210500Y-75345124D01*
X136210500Y-74731783D01*
X136230185Y-74664744D01*
X136282989Y-74618989D01*
X136291142Y-74615610D01*
X136315226Y-74606628D01*
X136424687Y-74524687D01*
X136506628Y-74415226D01*
X136554412Y-74287114D01*
X136557365Y-74259649D01*
X136560499Y-74230501D01*
X136560499Y-74230490D01*
X136560500Y-74230485D01*
X136560499Y-73689516D01*
X136554412Y-73632886D01*
X136506628Y-73504774D01*
X136424687Y-73395313D01*
X136315226Y-73313372D01*
X136315223Y-73313370D01*
X136291165Y-73304397D01*
X136235232Y-73262525D01*
X136210816Y-73197060D01*
X136210500Y-73188216D01*
X136210500Y-72038676D01*
X136230185Y-71971637D01*
X136246819Y-71950995D01*
X138100995Y-70096819D01*
X138162318Y-70063334D01*
X138188676Y-70060500D01*
X139699367Y-70060500D01*
X139766406Y-70080185D01*
X139812161Y-70132989D01*
X139823367Y-70184463D01*
X139824313Y-73313370D01*
X139826619Y-80945467D01*
X139806957Y-81012508D01*
X139754167Y-81058279D01*
X139702621Y-81069500D01*
X136516552Y-81069500D01*
X136460258Y-81055985D01*
X136417801Y-81034352D01*
X136319207Y-81018737D01*
X136319401Y-81017511D01*
X136259484Y-80994676D01*
X136218013Y-80938446D01*
X136210500Y-80895941D01*
X136210500Y-78031783D01*
X136230185Y-77964744D01*
X136282989Y-77918989D01*
X136291142Y-77915610D01*
X136315226Y-77906628D01*
X136424687Y-77824687D01*
X136506628Y-77715226D01*
X136554412Y-77587114D01*
X136556687Y-77565944D01*
X136560499Y-77530501D01*
X136560499Y-77530490D01*
X136560500Y-77530485D01*
X136560499Y-76989516D01*
X136554412Y-76932886D01*
X136506628Y-76804774D01*
X136424687Y-76695313D01*
X136358911Y-76646074D01*
X136315228Y-76613373D01*
X136315226Y-76613372D01*
X136187114Y-76565588D01*
X136187112Y-76565587D01*
X136187110Y-76565587D01*
X136130493Y-76559500D01*
X135289518Y-76559500D01*
X135289509Y-76559501D01*
X135232885Y-76565587D01*
X135104773Y-76613372D01*
X134995313Y-76695313D01*
X134913373Y-76804771D01*
X134913372Y-76804774D01*
X134866580Y-76930228D01*
X134865587Y-76932889D01*
X134859500Y-76989498D01*
X134859500Y-77530481D01*
X134859501Y-77530490D01*
X134865587Y-77587114D01*
X134913372Y-77715226D01*
X134995313Y-77824687D01*
X135104774Y-77906628D01*
X135128836Y-77915602D01*
X135184767Y-77957473D01*
X135209184Y-78022937D01*
X135209500Y-78031783D01*
X135209500Y-80079021D01*
X135189815Y-80146060D01*
X135137011Y-80191815D01*
X135067853Y-80201759D01*
X135004297Y-80172734D01*
X134978768Y-80142142D01*
X134935185Y-80068447D01*
X134935178Y-80068438D01*
X134819061Y-79952321D01*
X134819052Y-79952314D01*
X134677696Y-79868717D01*
X134677693Y-79868716D01*
X134519995Y-79822900D01*
X134519989Y-79822899D01*
X134483149Y-79820000D01*
X134080000Y-79820000D01*
X134080000Y-81420000D01*
X134483134Y-81420000D01*
X134483149Y-81419999D01*
X134519989Y-81417100D01*
X134519995Y-81417099D01*
X134558405Y-81405940D01*
X134628274Y-81406139D01*
X134686944Y-81444081D01*
X134715788Y-81507719D01*
X134717000Y-81525015D01*
X134717000Y-81751517D01*
X134721520Y-81780053D01*
X134731009Y-81839970D01*
X134733381Y-81854943D01*
X134731357Y-81855263D01*
X134732990Y-81912516D01*
X134696907Y-81972347D01*
X134634204Y-82003171D01*
X134564790Y-81995203D01*
X134556780Y-81991475D01*
X134542804Y-81984354D01*
X134542803Y-81984353D01*
X134542800Y-81984352D01*
X134542801Y-81984352D01*
X134449024Y-81969500D01*
X133210982Y-81969500D01*
X133130019Y-81982323D01*
X133117196Y-81984354D01*
X133004158Y-82041950D01*
X133004157Y-82041951D01*
X133004152Y-82041954D01*
X132992926Y-82053181D01*
X132931603Y-82086666D01*
X132905245Y-82089500D01*
X132026352Y-82089500D01*
X131959313Y-82069815D01*
X131913558Y-82017011D01*
X131909310Y-82006452D01*
X131907794Y-82002121D01*
X131907793Y-82002118D01*
X131902818Y-81995377D01*
X131827150Y-81892850D01*
X131717882Y-81812207D01*
X131717881Y-81812206D01*
X131710405Y-81806689D01*
X131711862Y-81804714D01*
X131671485Y-81765420D01*
X131655500Y-81704520D01*
X131655500Y-80870001D01*
X132595204Y-80870001D01*
X132595399Y-80872486D01*
X132641218Y-81030198D01*
X132724814Y-81171552D01*
X132724821Y-81171561D01*
X132840938Y-81287678D01*
X132840947Y-81287685D01*
X132982303Y-81371282D01*
X132982306Y-81371283D01*
X133140004Y-81417099D01*
X133140010Y-81417100D01*
X133176850Y-81419999D01*
X133176866Y-81420000D01*
X133580000Y-81420000D01*
X133580000Y-80870000D01*
X132595205Y-80870000D01*
X132595204Y-80870001D01*
X131655500Y-80870001D01*
X131655500Y-80369998D01*
X132595204Y-80369998D01*
X132595205Y-80370000D01*
X133580000Y-80370000D01*
X133580000Y-79820000D01*
X133176850Y-79820000D01*
X133140010Y-79822899D01*
X133140004Y-79822900D01*
X132982306Y-79868716D01*
X132982303Y-79868717D01*
X132840947Y-79952314D01*
X132840938Y-79952321D01*
X132724821Y-80068438D01*
X132724814Y-80068447D01*
X132641218Y-80209801D01*
X132595399Y-80367513D01*
X132595204Y-80369998D01*
X131655500Y-80369998D01*
X131655500Y-80159529D01*
X131675185Y-80092490D01*
X131705867Y-80059759D01*
X131712393Y-80054942D01*
X131777150Y-80007150D01*
X131857793Y-79897882D01*
X131885045Y-79820000D01*
X131902646Y-79769701D01*
X131902646Y-79769699D01*
X131905500Y-79739269D01*
X131905500Y-79080730D01*
X131902646Y-79050300D01*
X131902646Y-79050298D01*
X131857793Y-78922119D01*
X131857792Y-78922117D01*
X131777150Y-78812850D01*
X131667882Y-78732207D01*
X131667880Y-78732206D01*
X131539700Y-78687353D01*
X131509270Y-78684500D01*
X131509266Y-78684500D01*
X131000734Y-78684500D01*
X131000730Y-78684500D01*
X130970300Y-78687353D01*
X130970298Y-78687353D01*
X130842119Y-78732206D01*
X130842117Y-78732207D01*
X130732850Y-78812850D01*
X130652207Y-78922117D01*
X130652206Y-78922119D01*
X130607353Y-79050298D01*
X130607353Y-79050300D01*
X130604500Y-79080730D01*
X130604500Y-79739269D01*
X130607353Y-79769699D01*
X130607353Y-79769701D01*
X130652206Y-79897880D01*
X130652207Y-79897882D01*
X130732849Y-80007149D01*
X130732851Y-80007151D01*
X130804133Y-80059759D01*
X130846384Y-80115406D01*
X130854500Y-80159529D01*
X130854500Y-81777372D01*
X130834815Y-81844411D01*
X130804134Y-81877142D01*
X130782850Y-81892850D01*
X130720741Y-81977004D01*
X130665093Y-82019255D01*
X130595437Y-82024712D01*
X130533887Y-81991645D01*
X130502585Y-81940258D01*
X130498018Y-81925602D01*
X130410072Y-81780122D01*
X130289877Y-81659927D01*
X130144395Y-81571980D01*
X130144396Y-81571980D01*
X129982105Y-81521409D01*
X129982106Y-81521409D01*
X129911572Y-81515000D01*
X129905000Y-81515000D01*
X129905000Y-83464999D01*
X129911581Y-83464999D01*
X129982102Y-83458591D01*
X129982107Y-83458590D01*
X130144396Y-83408018D01*
X130289877Y-83320072D01*
X130410072Y-83199877D01*
X130498018Y-83054396D01*
X130502585Y-83039742D01*
X130541321Y-82981593D01*
X130605345Y-82953618D01*
X130674331Y-82964697D01*
X130720741Y-83002995D01*
X130782850Y-83087150D01*
X130892118Y-83167793D01*
X130934845Y-83182744D01*
X131020299Y-83212646D01*
X131050730Y-83215500D01*
X131050734Y-83215500D01*
X131559270Y-83215500D01*
X131589699Y-83212646D01*
X131589701Y-83212646D01*
X131653790Y-83190219D01*
X131717882Y-83167793D01*
X131827150Y-83087150D01*
X131907793Y-82977882D01*
X131909310Y-82973548D01*
X131950030Y-82916771D01*
X132014982Y-82891022D01*
X132026352Y-82890500D01*
X132845245Y-82890500D01*
X132912284Y-82910185D01*
X132932926Y-82926819D01*
X133004152Y-82998045D01*
X133004154Y-82998046D01*
X133004158Y-82998050D01*
X133114743Y-83054396D01*
X133117198Y-83055647D01*
X133210975Y-83070499D01*
X133210981Y-83070500D01*
X134449018Y-83070499D01*
X134542804Y-83055646D01*
X134655842Y-82998050D01*
X134745550Y-82908342D01*
X134803146Y-82795304D01*
X134803146Y-82795302D01*
X134803147Y-82795301D01*
X134817999Y-82701524D01*
X134818000Y-82701519D01*
X134817999Y-82338482D01*
X134803146Y-82244696D01*
X134803145Y-82244694D01*
X134801619Y-82235057D01*
X134803642Y-82234736D01*
X134802006Y-82177494D01*
X134838084Y-82117660D01*
X134900784Y-82086830D01*
X134970198Y-82094792D01*
X134978208Y-82098519D01*
X134992196Y-82105646D01*
X134992198Y-82105646D01*
X134992200Y-82105647D01*
X134992198Y-82105647D01*
X135085975Y-82120499D01*
X135085981Y-82120500D01*
X136324018Y-82120499D01*
X136417804Y-82105646D01*
X136460257Y-82084014D01*
X136516552Y-82070500D01*
X139702997Y-82070500D01*
X139770036Y-82090185D01*
X139815791Y-82142989D01*
X139826997Y-82194463D01*
X139827230Y-82964697D01*
X139829338Y-89940469D01*
X139829582Y-90745463D01*
X139809918Y-90812508D01*
X139757128Y-90858279D01*
X139705582Y-90869500D01*
X116723481Y-90869500D01*
X116716528Y-90869305D01*
X116413506Y-90852287D01*
X116399688Y-90850730D01*
X116103920Y-90800477D01*
X116090363Y-90797383D01*
X115802072Y-90714327D01*
X115788948Y-90709734D01*
X115511777Y-90594927D01*
X115499248Y-90588894D01*
X115236671Y-90443772D01*
X115224897Y-90436374D01*
X114980214Y-90262763D01*
X114969342Y-90254092D01*
X114745647Y-90054184D01*
X114735815Y-90044352D01*
X114535907Y-89820657D01*
X114527236Y-89809785D01*
X114353625Y-89565102D01*
X114346227Y-89553328D01*
X114201105Y-89290751D01*
X114195072Y-89278222D01*
X114080265Y-89001051D01*
X114075672Y-88987927D01*
X113992616Y-88699636D01*
X113989522Y-88686079D01*
X113970030Y-88571356D01*
X113939267Y-88390301D01*
X113937713Y-88376503D01*
X113920695Y-88073472D01*
X113920500Y-88066519D01*
X113920500Y-82740000D01*
X128755001Y-82740000D01*
X128755001Y-82821582D01*
X128761408Y-82892102D01*
X128761409Y-82892107D01*
X128811981Y-83054396D01*
X128899927Y-83199877D01*
X129020122Y-83320072D01*
X129165604Y-83408019D01*
X129165603Y-83408019D01*
X129327894Y-83458590D01*
X129327893Y-83458590D01*
X129398408Y-83464998D01*
X129398426Y-83464999D01*
X129404999Y-83464998D01*
X129405000Y-83464998D01*
X129405000Y-82740000D01*
X128755001Y-82740000D01*
X113920500Y-82740000D01*
X113920500Y-82014678D01*
X122089500Y-82014678D01*
X122104032Y-82087735D01*
X122104033Y-82087739D01*
X122115998Y-82105646D01*
X122159399Y-82170601D01*
X122195112Y-82194463D01*
X122242260Y-82225966D01*
X122242264Y-82225967D01*
X122315321Y-82240499D01*
X122315324Y-82240500D01*
X122315326Y-82240500D01*
X125364676Y-82240500D01*
X125364677Y-82240499D01*
X125367186Y-82240000D01*
X128755000Y-82240000D01*
X129405000Y-82240000D01*
X129405000Y-81515000D01*
X129404999Y-81514999D01*
X129398436Y-81515000D01*
X129398417Y-81515001D01*
X129327897Y-81521408D01*
X129327892Y-81521409D01*
X129165603Y-81571981D01*
X129020122Y-81659927D01*
X128899927Y-81780122D01*
X128811980Y-81925604D01*
X128761409Y-82087893D01*
X128755000Y-82158427D01*
X128755000Y-82240000D01*
X125367186Y-82240000D01*
X125437740Y-82225966D01*
X125520601Y-82170601D01*
X125575966Y-82087740D01*
X125590500Y-82014674D01*
X125590500Y-78965326D01*
X125590500Y-78965323D01*
X125590499Y-78965321D01*
X125575967Y-78892264D01*
X125575966Y-78892260D01*
X125520601Y-78809399D01*
X125437740Y-78754034D01*
X125437739Y-78754033D01*
X125437735Y-78754032D01*
X125364677Y-78739500D01*
X125364674Y-78739500D01*
X122315326Y-78739500D01*
X122315323Y-78739500D01*
X122242264Y-78754032D01*
X122242260Y-78754033D01*
X122159399Y-78809399D01*
X122104033Y-78892260D01*
X122104032Y-78892264D01*
X122089500Y-78965321D01*
X122089500Y-82014678D01*
X113920500Y-82014678D01*
X113920500Y-75410004D01*
X122084592Y-75410004D01*
X122104196Y-75671620D01*
X122104197Y-75671625D01*
X122162576Y-75927402D01*
X122162578Y-75927411D01*
X122162580Y-75927416D01*
X122258432Y-76171643D01*
X122389614Y-76398857D01*
X122517723Y-76559500D01*
X122553198Y-76603985D01*
X122734753Y-76772441D01*
X122745521Y-76782433D01*
X122962296Y-76930228D01*
X122962301Y-76930230D01*
X122962302Y-76930231D01*
X122962303Y-76930232D01*
X123085394Y-76989509D01*
X123198673Y-77044061D01*
X123198674Y-77044061D01*
X123198677Y-77044063D01*
X123449385Y-77121396D01*
X123708818Y-77160500D01*
X123971182Y-77160500D01*
X124230615Y-77121396D01*
X124481323Y-77044063D01*
X124668111Y-76954110D01*
X124717696Y-76930232D01*
X124717696Y-76930231D01*
X124717704Y-76930228D01*
X124934479Y-76782433D01*
X125126805Y-76603981D01*
X125290386Y-76398857D01*
X125421568Y-76171643D01*
X125517420Y-75927416D01*
X125522101Y-75906904D01*
X125556211Y-75845928D01*
X125617873Y-75813071D01*
X125642992Y-75810500D01*
X128887076Y-75810500D01*
X128954115Y-75830185D01*
X128986845Y-75860865D01*
X129022850Y-75909650D01*
X129132118Y-75990293D01*
X129132121Y-75990294D01*
X129136452Y-75991810D01*
X129193229Y-76032530D01*
X129218978Y-76097482D01*
X129219500Y-76108852D01*
X129219500Y-78649400D01*
X129199815Y-78716439D01*
X129169134Y-78749170D01*
X129082850Y-78812850D01*
X129002207Y-78922117D01*
X129002206Y-78922119D01*
X128957353Y-79050298D01*
X128957353Y-79050300D01*
X128954500Y-79080730D01*
X128954500Y-79739269D01*
X128957353Y-79769699D01*
X128957353Y-79769701D01*
X129002206Y-79897880D01*
X129002207Y-79897882D01*
X129082850Y-80007150D01*
X129192118Y-80087793D01*
X129234845Y-80102744D01*
X129320299Y-80132646D01*
X129350730Y-80135500D01*
X129350734Y-80135500D01*
X129859270Y-80135500D01*
X129889699Y-80132646D01*
X129889701Y-80132646D01*
X129953790Y-80110219D01*
X130017882Y-80087793D01*
X130127150Y-80007150D01*
X130207793Y-79897882D01*
X130235045Y-79820000D01*
X130252646Y-79769701D01*
X130252646Y-79769699D01*
X130255500Y-79739269D01*
X130255500Y-79080730D01*
X130252646Y-79050300D01*
X130252646Y-79050298D01*
X130207793Y-78922119D01*
X130207792Y-78922117D01*
X130127149Y-78812849D01*
X130070865Y-78771309D01*
X130028615Y-78715661D01*
X130020500Y-78671540D01*
X130020500Y-76108852D01*
X130040185Y-76041813D01*
X130092989Y-75996058D01*
X130103548Y-75991810D01*
X130105915Y-75990981D01*
X130107882Y-75990293D01*
X130217150Y-75909650D01*
X130297793Y-75800382D01*
X130320219Y-75736290D01*
X130342646Y-75672201D01*
X130342646Y-75672199D01*
X130345500Y-75641769D01*
X130345500Y-75133230D01*
X130342646Y-75102800D01*
X130342646Y-75102798D01*
X130307159Y-75001384D01*
X130297793Y-74974618D01*
X130217150Y-74865350D01*
X130107882Y-74784707D01*
X130107880Y-74784706D01*
X129979700Y-74739853D01*
X129949270Y-74737000D01*
X129949266Y-74737000D01*
X129290734Y-74737000D01*
X129290730Y-74737000D01*
X129260300Y-74739853D01*
X129260298Y-74739853D01*
X129132119Y-74784706D01*
X129132117Y-74784707D01*
X129022850Y-74865350D01*
X129002754Y-74892580D01*
X128953635Y-74959134D01*
X128897988Y-75001384D01*
X128853865Y-75009500D01*
X125642992Y-75009500D01*
X125575953Y-74989815D01*
X125530198Y-74937011D01*
X125522101Y-74913094D01*
X125517420Y-74892584D01*
X125421568Y-74648357D01*
X125290386Y-74421143D01*
X125126805Y-74216019D01*
X125126804Y-74216018D01*
X125126801Y-74216014D01*
X124934479Y-74037567D01*
X124911938Y-74022199D01*
X124717704Y-73889772D01*
X124717700Y-73889770D01*
X124717697Y-73889768D01*
X124717696Y-73889767D01*
X124481325Y-73775938D01*
X124481327Y-73775938D01*
X124230623Y-73698606D01*
X124230619Y-73698605D01*
X124230615Y-73698604D01*
X124105823Y-73679794D01*
X123971187Y-73659500D01*
X123971182Y-73659500D01*
X123708818Y-73659500D01*
X123708812Y-73659500D01*
X123547247Y-73683853D01*
X123449385Y-73698604D01*
X123449382Y-73698605D01*
X123449376Y-73698606D01*
X123198673Y-73775938D01*
X122962303Y-73889767D01*
X122962302Y-73889768D01*
X122745520Y-74037567D01*
X122553198Y-74216014D01*
X122389614Y-74421143D01*
X122258432Y-74648356D01*
X122162582Y-74892578D01*
X122162576Y-74892597D01*
X122104197Y-75148374D01*
X122104196Y-75148379D01*
X122084592Y-75409995D01*
X122084592Y-75410004D01*
X113920500Y-75410004D01*
X113920500Y-70125000D01*
X128645001Y-70125000D01*
X128645001Y-70141652D01*
X128655056Y-70240083D01*
X128707906Y-70399572D01*
X128707908Y-70399577D01*
X128796114Y-70542580D01*
X128914919Y-70661385D01*
X128997325Y-70712214D01*
X129044050Y-70764162D01*
X129055271Y-70833125D01*
X129031495Y-70892063D01*
X128947666Y-71004045D01*
X128947662Y-71004052D01*
X128900509Y-71130475D01*
X128894500Y-71186355D01*
X128894500Y-71713644D01*
X128900509Y-71769524D01*
X128947662Y-71895947D01*
X128947664Y-71895950D01*
X129028528Y-72003972D01*
X129136550Y-72084836D01*
X129138829Y-72085686D01*
X129140775Y-72087142D01*
X129144336Y-72089087D01*
X129144056Y-72089598D01*
X129194763Y-72127554D01*
X129219184Y-72193017D01*
X129219500Y-72201869D01*
X129219500Y-73016148D01*
X129199815Y-73083187D01*
X129147011Y-73128942D01*
X129136463Y-73133186D01*
X129134393Y-73133910D01*
X129132117Y-73134707D01*
X129022850Y-73215350D01*
X128942207Y-73324617D01*
X128942206Y-73324619D01*
X128897353Y-73452798D01*
X128897353Y-73452800D01*
X128894500Y-73483230D01*
X128894500Y-73991769D01*
X128897353Y-74022199D01*
X128897353Y-74022201D01*
X128942206Y-74150380D01*
X128942207Y-74150382D01*
X129022850Y-74259650D01*
X129132118Y-74340293D01*
X129174845Y-74355244D01*
X129260299Y-74385146D01*
X129290730Y-74388000D01*
X129290734Y-74388000D01*
X129949270Y-74388000D01*
X129979699Y-74385146D01*
X129979701Y-74385146D01*
X130043790Y-74362719D01*
X130107882Y-74340293D01*
X130217150Y-74259650D01*
X130297793Y-74150382D01*
X130337269Y-74037567D01*
X130342646Y-74022201D01*
X130342646Y-74022199D01*
X130345500Y-73991769D01*
X130345500Y-73483230D01*
X130342646Y-73452800D01*
X130342646Y-73452798D01*
X130297793Y-73324619D01*
X130297792Y-73324617D01*
X130289493Y-73313372D01*
X130217150Y-73215350D01*
X130107882Y-73134707D01*
X130103542Y-73133188D01*
X130046768Y-73092466D01*
X130021022Y-73027513D01*
X130020500Y-73016148D01*
X130020500Y-72201869D01*
X130040185Y-72134830D01*
X130092989Y-72089075D01*
X130101156Y-72085691D01*
X130103450Y-72084836D01*
X130211472Y-72003972D01*
X130292336Y-71895950D01*
X130339491Y-71769522D01*
X130344121Y-71726461D01*
X130345499Y-71713644D01*
X130345500Y-71713629D01*
X130345500Y-71186370D01*
X130345499Y-71186355D01*
X130342645Y-71159818D01*
X130339491Y-71130478D01*
X130292336Y-71004050D01*
X130211472Y-70896028D01*
X130211470Y-70896027D01*
X130208504Y-70892064D01*
X130184087Y-70826599D01*
X130198939Y-70758326D01*
X130242674Y-70712214D01*
X130325080Y-70661385D01*
X130443885Y-70542580D01*
X130532091Y-70399577D01*
X130532093Y-70399572D01*
X130584942Y-70240083D01*
X130594999Y-70141650D01*
X130595000Y-70141637D01*
X130595000Y-70125000D01*
X128645001Y-70125000D01*
X113920500Y-70125000D01*
X113920500Y-69625000D01*
X128645000Y-69625000D01*
X129370000Y-69625000D01*
X129370000Y-68937500D01*
X129870000Y-68937500D01*
X129870000Y-69625000D01*
X130594999Y-69625000D01*
X130594999Y-69608364D01*
X130594998Y-69608347D01*
X130584943Y-69509916D01*
X130532093Y-69350427D01*
X130532091Y-69350422D01*
X130443885Y-69207419D01*
X130325080Y-69088614D01*
X130182077Y-69000408D01*
X130182072Y-69000406D01*
X130022583Y-68947557D01*
X129924150Y-68937500D01*
X129870000Y-68937500D01*
X129370000Y-68937500D01*
X129369999Y-68937499D01*
X129315864Y-68937500D01*
X129315847Y-68937501D01*
X129217415Y-68947557D01*
X129057927Y-69000406D01*
X129057922Y-69000408D01*
X128914919Y-69088614D01*
X128796114Y-69207419D01*
X128707908Y-69350422D01*
X128707906Y-69350427D01*
X128655057Y-69509916D01*
X128645000Y-69608349D01*
X128645000Y-69625000D01*
X113920500Y-69625000D01*
X113920500Y-63013480D01*
X113920695Y-63006527D01*
X113921769Y-62987410D01*
X113937713Y-62703494D01*
X113939267Y-62689700D01*
X113989523Y-62393915D01*
X113992616Y-62380363D01*
X114050193Y-62180513D01*
X114075673Y-62092068D01*
X114080265Y-62078948D01*
X114170347Y-61861469D01*
X114195075Y-61801768D01*
X114201097Y-61789262D01*
X114346230Y-61526665D01*
X114353625Y-61514897D01*
X114527245Y-61270201D01*
X114535896Y-61259354D01*
X114735816Y-61035645D01*
X114745647Y-61025815D01*
X114969354Y-60825896D01*
X114980201Y-60817245D01*
X115224902Y-60643621D01*
X115236665Y-60636230D01*
X115499262Y-60491097D01*
X115511768Y-60485075D01*
X115788948Y-60370265D01*
X115802068Y-60365673D01*
X116090369Y-60282614D01*
X116103915Y-60279523D01*
X116399700Y-60229267D01*
X116413494Y-60227713D01*
X116716528Y-60210695D01*
X116723481Y-60210500D01*
X116759882Y-60210500D01*
X122437840Y-60210500D01*
X122504879Y-60230185D01*
G37*
%TD.AperFunction*%
%TD*%
M02*
