%TF.GenerationSoftware,KiCad,Pcbnew,7.0.10*%
%TF.CreationDate,2025-11-30T12:43:47-05:00*%
%TF.ProjectId,Relay_Helo,52656c61-795f-4486-956c-6f2e6b696361,rev?*%
%TF.SameCoordinates,Original*%
%TF.FileFunction,Drillmap*%
%TF.FilePolarity,Positive*%
%FSLAX45Y45*%
G04 Gerber Fmt 4.5, Leading zero omitted, Abs format (unit mm)*
G04 Created by KiCad (PCBNEW 7.0.10) date 2025-11-30 12:43:47*
%MOMM*%
%LPD*%
G01*
G04 APERTURE LIST*
%ADD10C,0.100000*%
%ADD11C,0.200000*%
G04 APERTURE END LIST*
D10*
X17397000Y-9107000D02*
X11672000Y-9107000D01*
X17697000Y-6301000D02*
G75*
G03*
X17397000Y-6001000I-300000J0D01*
G01*
X17697000Y-6301000D02*
X17697000Y-8807000D01*
X11372000Y-8807000D02*
X11372000Y-6301000D01*
X11672000Y-6001000D02*
G75*
G03*
X11372000Y-6301000I0J-300000D01*
G01*
X17397000Y-9107000D02*
G75*
G03*
X17697000Y-8807000I0J300000D01*
G01*
X11372000Y-8807000D02*
G75*
G03*
X11672000Y-9107000I300000J0D01*
G01*
X11672000Y-6001000D02*
X17397000Y-6001000D01*
D11*
X11627777Y-9423484D02*
X11627777Y-9223484D01*
X11627777Y-9223484D02*
X11675396Y-9223484D01*
X11675396Y-9223484D02*
X11703967Y-9233008D01*
X11703967Y-9233008D02*
X11723015Y-9252055D01*
X11723015Y-9252055D02*
X11732539Y-9271103D01*
X11732539Y-9271103D02*
X11742062Y-9309198D01*
X11742062Y-9309198D02*
X11742062Y-9337770D01*
X11742062Y-9337770D02*
X11732539Y-9375865D01*
X11732539Y-9375865D02*
X11723015Y-9394912D01*
X11723015Y-9394912D02*
X11703967Y-9413960D01*
X11703967Y-9413960D02*
X11675396Y-9423484D01*
X11675396Y-9423484D02*
X11627777Y-9423484D01*
X11827777Y-9423484D02*
X11827777Y-9290150D01*
X11827777Y-9328246D02*
X11837301Y-9309198D01*
X11837301Y-9309198D02*
X11846824Y-9299674D01*
X11846824Y-9299674D02*
X11865872Y-9290150D01*
X11865872Y-9290150D02*
X11884920Y-9290150D01*
X11951586Y-9423484D02*
X11951586Y-9290150D01*
X11951586Y-9223484D02*
X11942062Y-9233008D01*
X11942062Y-9233008D02*
X11951586Y-9242531D01*
X11951586Y-9242531D02*
X11961110Y-9233008D01*
X11961110Y-9233008D02*
X11951586Y-9223484D01*
X11951586Y-9223484D02*
X11951586Y-9242531D01*
X12075396Y-9423484D02*
X12056348Y-9413960D01*
X12056348Y-9413960D02*
X12046824Y-9394912D01*
X12046824Y-9394912D02*
X12046824Y-9223484D01*
X12180158Y-9423484D02*
X12161110Y-9413960D01*
X12161110Y-9413960D02*
X12151586Y-9394912D01*
X12151586Y-9394912D02*
X12151586Y-9223484D01*
X12408729Y-9423484D02*
X12408729Y-9223484D01*
X12408729Y-9223484D02*
X12475396Y-9366341D01*
X12475396Y-9366341D02*
X12542062Y-9223484D01*
X12542062Y-9223484D02*
X12542062Y-9423484D01*
X12723015Y-9423484D02*
X12723015Y-9318722D01*
X12723015Y-9318722D02*
X12713491Y-9299674D01*
X12713491Y-9299674D02*
X12694443Y-9290150D01*
X12694443Y-9290150D02*
X12656348Y-9290150D01*
X12656348Y-9290150D02*
X12637301Y-9299674D01*
X12723015Y-9413960D02*
X12703967Y-9423484D01*
X12703967Y-9423484D02*
X12656348Y-9423484D01*
X12656348Y-9423484D02*
X12637301Y-9413960D01*
X12637301Y-9413960D02*
X12627777Y-9394912D01*
X12627777Y-9394912D02*
X12627777Y-9375865D01*
X12627777Y-9375865D02*
X12637301Y-9356817D01*
X12637301Y-9356817D02*
X12656348Y-9347293D01*
X12656348Y-9347293D02*
X12703967Y-9347293D01*
X12703967Y-9347293D02*
X12723015Y-9337770D01*
X12818253Y-9290150D02*
X12818253Y-9490150D01*
X12818253Y-9299674D02*
X12837301Y-9290150D01*
X12837301Y-9290150D02*
X12875396Y-9290150D01*
X12875396Y-9290150D02*
X12894443Y-9299674D01*
X12894443Y-9299674D02*
X12903967Y-9309198D01*
X12903967Y-9309198D02*
X12913491Y-9328246D01*
X12913491Y-9328246D02*
X12913491Y-9385389D01*
X12913491Y-9385389D02*
X12903967Y-9404436D01*
X12903967Y-9404436D02*
X12894443Y-9413960D01*
X12894443Y-9413960D02*
X12875396Y-9423484D01*
X12875396Y-9423484D02*
X12837301Y-9423484D01*
X12837301Y-9423484D02*
X12818253Y-9413960D01*
X12999205Y-9404436D02*
X13008729Y-9413960D01*
X13008729Y-9413960D02*
X12999205Y-9423484D01*
X12999205Y-9423484D02*
X12989682Y-9413960D01*
X12989682Y-9413960D02*
X12999205Y-9404436D01*
X12999205Y-9404436D02*
X12999205Y-9423484D01*
X12999205Y-9299674D02*
X13008729Y-9309198D01*
X13008729Y-9309198D02*
X12999205Y-9318722D01*
X12999205Y-9318722D02*
X12989682Y-9309198D01*
X12989682Y-9309198D02*
X12999205Y-9299674D01*
X12999205Y-9299674D02*
X12999205Y-9318722D01*
M02*
